<?xml version="1.0" encoding="UTF-8" standalone="no"?>
<svg
   xmlns:dc="http://purl.org/dc/elements/1.1/"
   xmlns:cc="http://creativecommons.org/ns#"
   xmlns:rdf="http://www.w3.org/1999/02/22-rdf-syntax-ns#"
   xmlns:svg="http://www.w3.org/2000/svg"
   xmlns="http://www.w3.org/2000/svg"
   xmlns:sodipodi="http://sodipodi.sourceforge.net/DTD/sodipodi-0.dtd"
   xmlns:inkscape="http://www.inkscape.org/namespaces/inkscape"
   version="1.1"
   viewBox="0 0 854.4375 296.50476"
   stroke-miterlimit="10"
   id="svg2"
   inkscape:version="0.48.3.1 r9886"
   width="100%"
   height="100%"
   sodipodi:docname="RankSwappingSchematic.svg"
   style="fill:none;stroke:none">
  <metadata
     id="metadata779">
    <rdf:RDF>
      <cc:Work
         rdf:about="">
        <dc:format>image/svg+xml</dc:format>
        <dc:type
           rdf:resource="http://purl.org/dc/dcmitype/StillImage" />
      </cc:Work>
    </rdf:RDF>
  </metadata>
  <defs
     id="defs777" />
  <sodipodi:namedview
     pagecolor="#ffffff"
     bordercolor="#666666"
     borderopacity="1"
     objecttolerance="10"
     gridtolerance="10"
     guidetolerance="10"
     inkscape:pageopacity="0"
     inkscape:pageshadow="2"
     inkscape:window-width="1317"
     inkscape:window-height="744"
     id="namedview775"
     showgrid="false"
     fit-margin-top="20"
     fit-margin-left="20"
     fit-margin-right="20"
     fit-margin-bottom="20"
     inkscape:zoom="0.86031325"
     inkscape:cx="451.59108"
     inkscape:cy="103.89878"
     inkscape:window-x="49"
     inkscape:window-y="24"
     inkscape:window-maximized="1"
     inkscape:current-layer="svg2" />
  <clipPath
     id="p.0">
    <path
       d="M 0,0 960,0 960,540 0,540 0,0 z"
       clip-rule="nonzero"
       id="path5"
       inkscape:connector-curvature="0" />
  </clipPath>
  <path
     style="fill:#ffffff;fill-rule:nonzero"
     inkscape:connector-curvature="0"
     id="path11"
     d="m 64.9722,245.7016 43.49606,0 0,15.40158 -43.49606,0 z" />
  <path
     style="stroke:#000000;stroke-width:1;stroke-linecap:butt;stroke-linejoin:round"
     inkscape:connector-curvature="0"
     id="path13"
     d="m 64.9722,245.7016 43.49606,0 0,15.40158 -43.49606,0 z" />
  <path
     style="fill:#ffffff;fill-rule:nonzero"
     inkscape:connector-curvature="0"
     id="path15"
     d="m 151.93004,245.7016 43.49606,0 0,15.40158 -43.49606,0 z" />
  <path
     style="stroke:#000000;stroke-width:1;stroke-linecap:butt;stroke-linejoin:round"
     inkscape:connector-curvature="0"
     id="path17"
     d="m 151.93004,245.7016 43.49606,0 0,15.40158 -43.49606,0 z" />
  <path
     style="fill:#ffffff;fill-rule:nonzero"
     inkscape:connector-curvature="0"
     id="path19"
     d="m 195.40898,245.7016 43.49605,0 0,15.40158 -43.49605,0 z" />
  <path
     style="stroke:#000000;stroke-width:1;stroke-linecap:butt;stroke-linejoin:round"
     inkscape:connector-curvature="0"
     id="path21"
     d="m 195.40898,245.7016 43.49605,0 0,15.40158 -43.49605,0 z" />
  <path
     style="fill:#ffffff;fill-rule:nonzero"
     inkscape:connector-curvature="0"
     id="path23"
     d="m 238.8879,245.7016 43.49606,0 0,15.40158 -43.49606,0 z" />
  <path
     style="stroke:#000000;stroke-width:1;stroke-linecap:butt;stroke-linejoin:round"
     inkscape:connector-curvature="0"
     id="path25"
     d="m 238.8879,245.7016 43.49606,0 0,15.40158 -43.49606,0 z" />
  <path
     style="fill:#ffffff;fill-rule:nonzero"
     inkscape:connector-curvature="0"
     id="path27"
     d="m 282.36682,245.7016 43.49606,0 0,15.40158 -43.49606,0 z" />
  <path
     style="stroke:#000000;stroke-width:1;stroke-linecap:butt;stroke-linejoin:round"
     inkscape:connector-curvature="0"
     id="path29"
     d="m 282.36682,245.7016 43.49606,0 0,15.40158 -43.49606,0 z" />
  <path
     style="fill:#ffffff;fill-rule:nonzero"
     inkscape:connector-curvature="0"
     id="path31"
     d="m 325.84576,245.7016 43.49606,0 0,15.40158 -43.49606,0 z" />
  <path
     style="stroke:#000000;stroke-width:1;stroke-linecap:butt;stroke-linejoin:round"
     inkscape:connector-curvature="0"
     id="path33"
     d="m 325.84576,245.7016 43.49606,0 0,15.40158 -43.49606,0 z" />
  <path
     style="fill:#ffffff;fill-rule:nonzero"
     inkscape:connector-curvature="0"
     id="path35"
     d="m 369.32468,245.7016 43.49606,0 0,15.40158 -43.49606,0 z" />
  <path
     style="stroke:#000000;stroke-width:1;stroke-linecap:butt;stroke-linejoin:round"
     inkscape:connector-curvature="0"
     id="path37"
     d="m 369.32468,245.7016 43.49606,0 0,15.40158 -43.49606,0 z" />
  <path
     style="fill:#ffffff;fill-rule:nonzero"
     inkscape:connector-curvature="0"
     id="path39"
     d="m 412.8036,245.7016 43.49606,0 0,15.40158 -43.49606,0 z" />
  <path
     style="stroke:#000000;stroke-width:1;stroke-linecap:butt;stroke-linejoin:round"
     inkscape:connector-curvature="0"
     id="path41"
     d="m 412.8036,245.7016 43.49606,0 0,15.40158 -43.49606,0 z" />
  <path
     style="fill:#ffffff;fill-rule:nonzero"
     inkscape:connector-curvature="0"
     id="path43"
     d="m 456.28253,245.7016 43.49603,0 0,15.40158 -43.49603,0 z" />
  <path
     style="stroke:#000000;stroke-width:1;stroke-linecap:butt;stroke-linejoin:round"
     inkscape:connector-curvature="0"
     id="path45"
     d="m 456.28253,245.7016 43.49603,0 0,15.40158 -43.49603,0 z" />
  <path
     style="fill:#ffffff;fill-rule:nonzero"
     inkscape:connector-curvature="0"
     id="path47"
     d="m 499.7614,245.7016 43.49609,0 0,15.40158 -43.49609,0 z" />
  <path
     style="stroke:#000000;stroke-width:1;stroke-linecap:butt;stroke-linejoin:round"
     inkscape:connector-curvature="0"
     id="path49"
     d="m 499.7614,245.7016 43.49609,0 0,15.40158 -43.49609,0 z" />
  <path
     style="fill:#ffffff;fill-rule:nonzero"
     inkscape:connector-curvature="0"
     id="path51"
     d="m 543.24036,245.7016 43.49609,0 0,15.40158 -43.49609,0 z" />
  <path
     style="stroke:#000000;stroke-width:1;stroke-linecap:butt;stroke-linejoin:round"
     inkscape:connector-curvature="0"
     id="path53"
     d="m 543.24036,245.7016 43.49609,0 0,15.40158 -43.49609,0 z" />
  <path
     style="fill:#ffffff;fill-rule:nonzero"
     inkscape:connector-curvature="0"
     id="path55"
     d="m 586.7193,245.7016 43.49603,0 0,15.40158 -43.49603,0 z" />
  <path
     style="stroke:#000000;stroke-width:1;stroke-linecap:butt;stroke-linejoin:round"
     inkscape:connector-curvature="0"
     id="path57"
     d="m 586.7193,245.7016 43.49603,0 0,15.40158 -43.49603,0 z" />
  <path
     style="fill:#ffffff;fill-rule:nonzero"
     inkscape:connector-curvature="0"
     id="path59"
     d="m 630.1982,245.7016 43.49609,0 0,15.40158 -43.49609,0 z" />
  <path
     style="stroke:#000000;stroke-width:1;stroke-linecap:butt;stroke-linejoin:round"
     inkscape:connector-curvature="0"
     id="path61"
     d="m 630.1982,245.7016 43.49609,0 0,15.40158 -43.49609,0 z" />
  <path
     style="fill:#ffffff;fill-rule:nonzero"
     inkscape:connector-curvature="0"
     id="path63"
     d="m 673.6772,245.7016 43.49603,0 0,15.40158 -43.49603,0 z" />
  <path
     style="stroke:#000000;stroke-width:1;stroke-linecap:butt;stroke-linejoin:round"
     inkscape:connector-curvature="0"
     id="path65"
     d="m 673.6772,245.7016 43.49603,0 0,15.40158 -43.49603,0 z" />
  <path
     style="fill:#ffffff;fill-rule:nonzero"
     inkscape:connector-curvature="0"
     id="path67"
     d="m 21.493275,245.7016 43.49606,0 0,15.40158 -43.49606,0 z" />
  <path
     style="stroke:#000000;stroke-width:3;stroke-linecap:butt;stroke-linejoin:round"
     inkscape:connector-curvature="0"
     id="path69"
     d="m 21.493275,245.7016 43.49606,0 0,15.40158 -43.49606,0 z" />
  <path
     style="fill:#ffffff;fill-rule:nonzero"
     inkscape:connector-curvature="0"
     id="path71"
     d="m 108.45113,245.7016 43.49606,0 0,15.40158 -43.49606,0 z" />
  <path
     style="stroke:#000000;stroke-width:1;stroke-linecap:butt;stroke-linejoin:round"
     inkscape:connector-curvature="0"
     id="path73"
     d="m 108.45113,245.7016 43.49606,0 0,15.40158 -43.49606,0 z" />
  <path
     style="fill:#000000;fill-opacity:0;fill-rule:nonzero"
     inkscape:connector-curvature="0"
     id="path75"
     d="m 21.49364,261.10318 43.47836,0 0,15.40158 -43.47836,0 z" />
  <path
     style="fill:#000000;fill-rule:nonzero"
     inkscape:connector-curvature="0"
     id="path77"
     d="m 43.087776,272.34208 q -0.9375,0 -1.40625,-0.75 -0.46875,-0.75 -0.46875,-2.26563 0,-0.8125 0.140625,-1.40625 0.15625,-0.59375 0.40625,-0.96875 0.25,-0.39062 0.609375,-0.5625 0.375,-0.1875 0.796875,-0.1875 0.953125,0 1.421875,0.75 0.484375,0.73438 0.484375,2.23438 0,1.54687 -0.515625,2.35937 -0.5,0.79688 -1.46875,0.79688 z m -1.015625,-3.15625 q 0,1.4375 0.265625,2.10937 0.265625,0.67188 0.828125,0.67188 0.53125,0 0.78125,-0.625 0.265625,-0.64063 0.265625,-1.96875 0,-1 -0.140625,-1.625 -0.125,-0.64063 -0.359375,-0.90625 -0.234375,-0.28125 -0.578125,-0.28125 -0.296875,0 -0.5,0.1875 -0.203125,0.1875 -0.328125,0.53125 -0.125,0.32812 -0.1875,0.8125 -0.04687,0.48437 -0.04687,1.09375 z" />
  <path
     style="fill:#000000;fill-opacity:0;fill-rule:nonzero"
     inkscape:connector-curvature="0"
     id="path79"
     d="m 64.972,261.10318 43.47836,0 0,15.40158 -43.47836,0 z" />
  <path
     style="fill:#000000;fill-rule:nonzero"
     inkscape:connector-curvature="0"
     id="path81"
     d="m 87.17551,271.12332 q 0,0.25 0.0312,0.375 0.0312,0.125 0.0937,0.21875 0.0781,0.0781 0.21875,0.125 0.14063,0.0469 0.34375,0.0781 0.20313,0.0156 0.54688,0.0156 l 0,0.32812 -3.25,0 0,-0.32812 q 0.48437,-0.0156 0.6875,-0.0469 0.21875,-0.0469 0.32812,-0.10937 0.10938,-0.0781 0.15625,-0.21875 0.0625,-0.14063 0.0625,-0.4375 l 0,-3.57813 q 0,-0.17187 -0.0625,-0.25 -0.0625,-0.0781 -0.1875,-0.0781 -0.14062,0 -0.40625,0.14062 -0.25,0.14063 -0.64062,0.40625 l -0.1875,-0.34375 2.0625,-1.21875 0.23437,0 q -0.0312,0.42188 -0.0312,1.15625 l 0,3.76563 z" />
  <path
     style="fill:#000000;fill-opacity:0;fill-rule:nonzero"
     inkscape:connector-curvature="0"
     id="path83"
     d="m 108.45036,261.10318 43.47836,0 0,15.40158 -43.47836,0 z" />
  <path
     style="fill:#000000;fill-rule:nonzero"
     inkscape:connector-curvature="0"
     id="path85"
     d="m 130.68513,271.56082 q 0.21875,0 0.34375,-0.0156 0.14062,-0.0312 0.21875,-0.0937 0.0781,-0.0625 0.125,-0.15625 0.0469,-0.10937 0.125,-0.3125 l 0.375,0 -0.0781,1.28125 -3.625,0 0,-0.21875 q 0.1875,-0.45312 0.5,-0.9375 0.32813,-0.48437 0.92188,-1.14062 0.51562,-0.5625 0.73437,-0.84375 0.25,-0.32813 0.35938,-0.54688 0.125,-0.23437 0.17187,-0.4375 0.0625,-0.20312 0.0625,-0.42187 0,-0.32813 -0.10937,-0.57813 -0.0937,-0.25 -0.3125,-0.39062 -0.21875,-0.15625 -0.54688,-0.15625 -0.82812,0 -1.10937,0.92187 l -0.53125,0 0,-0.84375 q 0.53125,-0.25 0.98437,-0.35937 0.46875,-0.10938 0.84375,-0.10938 0.8125,0 1.21875,0.35938 0.42188,0.34375 0.42188,1.03125 0,0.23437 -0.0469,0.4375 -0.0312,0.1875 -0.14062,0.375 -0.0937,0.1875 -0.26563,0.42187 -0.15625,0.21875 -0.35937,0.45313 -0.20313,0.21875 -0.70313,0.73437 -0.84375,0.89063 -1.23437,1.54688 l 1.65625,0 z" />
  <path
     style="fill:#000000;fill-opacity:0;fill-rule:nonzero"
     inkscape:connector-curvature="0"
     id="path87"
     d="m 151.92873,261.10318 43.47836,0 0,15.40158 -43.47836,0 z" />
  <path
     style="fill:#000000;fill-rule:nonzero"
     inkscape:connector-curvature="0"
     id="path89"
     d="m 171.7885,267.51395 0,-0.84375 q 0.5,-0.23438 0.9375,-0.34375 0.45312,-0.125 0.875,-0.125 0.48437,0 0.85937,0.15625 0.375,0.14062 0.57813,0.4375 0.20312,0.28125 0.20312,0.6875 0,0.375 -0.15625,0.65625 -0.15625,0.28125 -0.42187,0.5 -0.26563,0.20312 -0.70313,0.40625 l 0,0.0312 q 0.26563,0.0469 0.51563,0.17187 0.25,0.10938 0.4375,0.29688 0.20312,0.1875 0.3125,0.45312 0.125,0.25 0.125,0.57813 0,0.51562 -0.23438,0.90625 -0.21875,0.39062 -0.67187,0.625 -0.45313,0.23437 -1.10938,0.23437 -0.375,0 -0.8125,-0.0781 -0.4375,-0.0937 -0.79687,-0.23438 l 0,-0.9375 0.51562,0 q 0.15625,0.45313 0.40625,0.67188 0.25,0.20312 0.6875,0.20312 0.57813,0 0.85938,-0.3125 0.29687,-0.3125 0.29687,-0.92187 0,-0.65625 -0.39062,-0.98438 -0.375,-0.34375 -1.125,-0.34375 l -0.39063,0 0,-0.39062 q 0.59375,-0.0312 1,-0.21875 0.40625,-0.20313 0.59375,-0.5 0.20313,-0.29688 0.20313,-0.6875 0,-0.48438 -0.26563,-0.75 -0.25,-0.26563 -0.75,-0.26563 -0.40625,0 -0.67187,0.23438 -0.26563,0.21875 -0.39063,0.6875 l -0.51562,0 z" />
  <path
     style="fill:#000000;fill-opacity:0;fill-rule:nonzero"
     inkscape:connector-curvature="0"
     id="path91"
     d="m 195.40709,261.10318 43.47838,0 0,15.40158 -43.47838,0 z" />
  <path
     style="fill:#000000;fill-rule:nonzero"
     inkscape:connector-curvature="0"
     id="path93"
     d="m 216.82936,272.0452 q 0.28125,-0.0625 0.35937,-0.14063 0.0937,-0.0937 0.125,-0.25 0.0312,-0.17187 0.0312,-0.48437 l 0,-0.71875 -2.4375,0 0,-0.34375 2.5625,-3.875 0.625,0 0,3.78125 0.0937,0 q 0.26563,0 0.375,-0.0312 0.10938,-0.0469 0.17188,-0.14063 0.0781,-0.0937 0.14062,-0.29687 l 0.32813,0 -0.0469,0.90625 -1.0625,0 0,0.71875 q 0,0.29687 0.0156,0.4375 0.0312,0.125 0.0781,0.20312 0.0469,0.0781 0.125,0.14063 0.0937,0.0469 0.29688,0.0937 l 0,0.21875 -1.78125,0 0,-0.21875 z m -1.20313,-2.03125 1.71875,0 0,-1.09375 q 0,-0.40625 0.0156,-0.92188 0.0156,-0.51562 0.0312,-0.76562 l -0.0469,0 -1.71875,2.71875 0,0.0625 z" />
  <path
     style="fill:#000000;fill-opacity:0;fill-rule:nonzero"
     inkscape:connector-curvature="0"
     id="path95"
     d="m 238.88547,261.10318 43.47836,0 0,15.40158 -43.47836,0 z" />
  <path
     style="fill:#000000;fill-rule:nonzero"
     inkscape:connector-curvature="0"
     id="path97"
     d="m 258.69833,272.02958 0,-0.9375 0.53125,0 q 0.14062,0.45312 0.40625,0.67187 0.26562,0.20313 0.6875,0.20313 0.57812,0 0.875,-0.34375 0.29687,-0.35938 0.29687,-1.0625 0,-0.46875 -0.15625,-0.76563 -0.15625,-0.3125 -0.42187,-0.4375 -0.26563,-0.14062 -0.625,-0.14062 -0.29688,0 -0.51563,0.0312 -0.21875,0.0312 -0.45312,0.10937 l -0.35938,-0.20312 0,-2.89063 2.42188,0 q 0.15625,0 0.21875,-0.0156 0.0625,-0.0312 0.0937,-0.0781 0.0469,-0.0469 0.0937,-0.1875 l 0.34375,0 -0.0625,1.01563 -2.53125,0 0,1.92187 q 0.23437,-0.0937 0.5,-0.14062 0.26562,-0.0469 0.54687,-0.0469 0.51563,0 0.92188,0.21875 0.40625,0.20313 0.625,0.59375 0.21875,0.39063 0.21875,0.92188 0,0.57812 -0.25,1 -0.25,0.42187 -0.71875,0.65625 -0.45313,0.21875 -1.09375,0.21875 -0.76563,0 -1.59375,-0.3125 z" />
  <path
     style="fill:#000000;fill-opacity:0;fill-rule:nonzero"
     inkscape:connector-curvature="0"
     id="path99"
     d="m 282.36383,261.10318 43.47836,0 0,15.40158 -43.47836,0 z" />
  <path
     style="fill:#000000;fill-rule:nonzero"
     inkscape:connector-curvature="0"
     id="path101"
     d="m 305.52045,266.43582 0,0.21875 q -0.67188,0 -1.20313,0.29687 -0.51562,0.28125 -0.85937,0.84375 -0.34375,0.5625 -0.48438,1.32813 l 0.0469,0.0312 q 0.35937,-0.26563 0.71875,-0.39063 0.35937,-0.125 0.78125,-0.125 0.5,0 0.84375,0.21875 0.34375,0.21875 0.51562,0.60938 0.1875,0.39062 0.1875,0.92187 0,0.5625 -0.21875,1 -0.21875,0.4375 -0.6875,0.70313 -0.45312,0.25 -1.125,0.25 -0.96875,0 -1.45312,-0.59375 -0.48438,-0.60938 -0.48438,-1.78125 0,-0.78125 0.23438,-1.45313 0.25,-0.6875 0.70312,-1.1875 0.45313,-0.51562 1.04688,-0.79687 0.60937,-0.29688 1.26562,-0.32813 l 0.17188,0.23438 z m -1.3125,2.65625 q -0.20313,0 -0.40625,0.0625 -0.20313,0.0469 -0.375,0.14062 -0.17188,0.0781 -0.34375,0.21875 -0.0625,0.0625 -0.0781,0.10938 -0.0469,0.0781 -0.0625,0.20312 -0.0156,0.125 -0.0156,0.42188 0,0.82812 0.28125,1.28125 0.28125,0.4375 0.85937,0.4375 0.32813,0 0.54688,-0.10938 0.23437,-0.125 0.35937,-0.32812 0.14063,-0.20313 0.20313,-0.46875 0.0625,-0.26563 0.0625,-0.57813 0,-0.65625 -0.26563,-1.01562 -0.26562,-0.375 -0.76562,-0.375 z" />
  <path
     style="fill:#000000;fill-opacity:0;fill-rule:nonzero"
     inkscape:connector-curvature="0"
     id="path103"
     d="m 325.8422,261.10318 43.47836,0 0,15.40158 -43.47836,0 z" />
  <path
     style="fill:#000000;fill-rule:nonzero"
     inkscape:connector-curvature="0"
     id="path105"
     d="m 349.51443,266.4827 -2.5625,5.8125 -0.64063,0 0,-0.21875 2.375,-5.01563 0,-0.0625 -1.9375,0 q -0.1875,0 -0.29687,0.0312 -0.0937,0.0312 -0.17188,0.0937 -0.0781,0.0625 -0.125,0.17188 -0.0469,0.0937 -0.125,0.39062 l -0.375,0 0.0781,-1.42187 3.78125,0 0,0.21875 z" />
  <path
     style="fill:#000000;fill-opacity:0;fill-rule:nonzero"
     inkscape:connector-curvature="0"
     id="path107"
     d="m 369.32056,261.10318 43.47836,0 0,15.40158 -43.47836,0 z" />
  <path
     style="fill:#000000;fill-rule:nonzero"
     inkscape:connector-curvature="0"
     id="path109"
     d="m 391.96155,269.09208 0,0.0625 q 0.5,0.1875 0.75,0.5625 0.26562,0.375 0.26562,0.89062 0,0.51563 -0.25,0.90625 -0.25,0.39063 -0.71875,0.60938 -0.46875,0.21875 -1.09375,0.21875 -0.57812,0 -1.03125,-0.20313 -0.4375,-0.20312 -0.6875,-0.57812 -0.23437,-0.375 -0.23437,-0.875 0,-0.39063 0.125,-0.67188 0.14062,-0.28125 0.34375,-0.45312 0.21875,-0.1875 0.54687,-0.34375 l 0,-0.0469 q -0.95312,-0.40625 -0.95312,-1.40625 0,-0.45312 0.25,-0.8125 0.25,-0.35937 0.70312,-0.54687 0.46875,-0.20313 1.01563,-0.20313 0.64062,0 1.0625,0.17188 0.4375,0.17187 0.65625,0.51562 0.21875,0.32813 0.21875,0.79688 0,0.48437 -0.23438,0.84375 -0.23437,0.34375 -0.73437,0.5625 z m -2.10938,-1.375 q 0,0.26562 0.0625,0.5 0.0625,0.21875 0.1875,0.39062 0.14063,0.17188 0.35938,0.26563 0.21875,0.0937 0.53125,0.0937 0.375,0 0.625,-0.14063 0.25,-0.14062 0.35937,-0.40625 0.125,-0.28125 0.125,-0.64062 0,-0.39063 -0.14062,-0.67188 -0.14063,-0.28125 -0.39063,-0.40625 -0.25,-0.14062 -0.57812,-0.14062 -0.5625,0 -0.85938,0.3125 -0.28125,0.29687 -0.28125,0.84375 z m -0.0469,2.89062 q 0,0.28125 0.0625,0.53125 0.0625,0.25 0.20312,0.4375 0.15625,0.17188 0.375,0.28125 0.21875,0.10938 0.54688,0.10938 0.35937,0 0.60937,-0.14063 0.26563,-0.15625 0.39063,-0.4375 0.14062,-0.29687 0.14062,-0.70312 0,-0.42188 -0.15625,-0.71875 -0.14062,-0.3125 -0.40625,-0.46875 -0.25,-0.15625 -0.60937,-0.15625 -0.3125,0 -0.54688,0.10937 -0.21875,0.0937 -0.35937,0.26563 -0.125,0.17187 -0.1875,0.40625 -0.0625,0.21875 -0.0625,0.48437 z" />
  <path
     style="fill:#000000;fill-opacity:0;fill-rule:nonzero"
     inkscape:connector-curvature="0"
     id="path111"
     d="m 412.79892,261.10318 43.47836,0 0,15.40158 -43.47836,0 z" />
  <path
     style="fill:#000000;fill-rule:nonzero"
     inkscape:connector-curvature="0"
     id="path113"
     d="m 433.33054,272.09208 0,-0.21875 q 0.60937,0 1.0625,-0.26563 0.45312,-0.28125 0.71875,-0.8125 0.28125,-0.53125 0.375,-1.39062 l -0.0469,-0.0312 q -0.35937,0.26562 -0.71875,0.39062 -0.35937,0.125 -0.78125,0.125 -0.5,0 -0.84375,-0.21875 -0.34375,-0.21875 -0.53125,-0.60937 -0.17187,-0.39063 -0.17187,-0.92188 0,-0.39062 0.125,-0.73437 0.14062,-0.35938 0.39062,-0.625 0.26563,-0.26563 0.65625,-0.42188 0.39063,-0.15625 0.90625,-0.15625 0.92188,0 1.40625,0.64063 0.48438,0.625 0.48438,1.82812 0,1.09375 -0.35938,1.89063 -0.34375,0.79687 -1,1.25 -0.64062,0.4375 -1.48437,0.53125 l -0.1875,-0.25 z m 0.92187,-2.65625 q 0.15625,0 0.3125,-0.0312 0.15625,-0.0312 0.29688,-0.0781 0.14062,-0.0625 0.28125,-0.14062 0.14062,-0.0937 0.25,-0.1875 0.0312,-0.0469 0.0625,-0.0937 0.0312,-0.0625 0.0469,-0.15625 0.0312,-0.0937 0.0312,-0.28125 0,-0.60938 -0.125,-1.03125 -0.125,-0.4375 -0.375,-0.65625 -0.25,-0.21875 -0.60937,-0.21875 -0.32813,0 -0.5625,0.125 -0.21875,0.10937 -0.375,0.3125 -0.14063,0.20312 -0.20313,0.46875 -0.0625,0.26562 -0.0625,0.59375 0,0.64062 0.26563,1.01562 0.26562,0.35938 0.76562,0.35938 z" />
  <path
     style="fill:#000000;fill-opacity:0;fill-rule:nonzero"
     inkscape:connector-curvature="0"
     id="path115"
     d="m 456.27728,261.10318 43.47833,0 0,15.40158 -43.47833,0 z" />
  <path
     style="fill:#000000;fill-rule:nonzero"
     inkscape:connector-curvature="0"
     id="path117"
     d="m 475.89825,271.12332 q 0,0.25 0.0312,0.375 0.0312,0.125 0.0937,0.21875 0.0781,0.0781 0.21875,0.125 0.14063,0.0469 0.34375,0.0781 0.20313,0.0156 0.54688,0.0156 l 0,0.32812 -3.25,0 0,-0.32812 q 0.48437,-0.0156 0.6875,-0.0469 0.21875,-0.0469 0.32812,-0.10937 0.10938,-0.0781 0.15625,-0.21875 0.0625,-0.14063 0.0625,-0.4375 l 0,-3.57813 q 0,-0.17187 -0.0625,-0.25 -0.0625,-0.0781 -0.1875,-0.0781 -0.14062,0 -0.40625,0.14062 -0.25,0.14063 -0.64062,0.40625 l -0.1875,-0.34375 2.0625,-1.21875 0.23437,0 q -0.0312,0.42188 -0.0312,1.15625 l 0,3.76563 z m 4.55573,1.21875 q -0.9375,0 -1.40625,-0.75 -0.46879,-0.75 -0.46879,-2.26563 0,-0.8125 0.14066,-1.40625 0.15625,-0.59375 0.40625,-0.96875 0.25,-0.39062 0.60938,-0.5625 0.375,-0.1875 0.79687,-0.1875 0.95313,0 1.42188,0.75 0.48437,0.73438 0.48437,2.23438 0,1.54687 -0.51562,2.35937 -0.5,0.79688 -1.46875,0.79688 z m -1.01563,-3.15625 q 0,1.4375 0.26563,2.10937 0.26562,0.67188 0.82812,0.67188 0.53125,0 0.78125,-0.625 0.26563,-0.64063 0.26563,-1.96875 0,-1 -0.14063,-1.625 -0.125,-0.64063 -0.35937,-0.90625 -0.23438,-0.28125 -0.57813,-0.28125 -0.29687,0 -0.5,0.1875 -0.20312,0.1875 -0.32812,0.53125 -0.125,0.32812 -0.1875,0.8125 -0.0469,0.48437 -0.0469,1.09375 z" />
  <path
     style="fill:#000000;fill-opacity:0;fill-rule:nonzero"
     inkscape:connector-curvature="0"
     id="path119"
     d="m 499.7556,261.10318 43.47839,0 0,15.40158 -43.47839,0 z" />
  <path
     style="fill:#000000;fill-rule:nonzero"
     inkscape:connector-curvature="0"
     id="path121"
     d="m 519.3766,271.12332 q 0,0.25 0.0312,0.375 0.0312,0.125 0.0937,0.21875 0.0781,0.0781 0.21875,0.125 0.14063,0.0469 0.34375,0.0781 0.20313,0.0156 0.54688,0.0156 l 0,0.32812 -3.25,0 0,-0.32812 q 0.48437,-0.0156 0.6875,-0.0469 0.21875,-0.0469 0.32812,-0.10937 0.10938,-0.0781 0.15625,-0.21875 0.0625,-0.14063 0.0625,-0.4375 l 0,-3.57813 q 0,-0.17187 -0.0625,-0.25 -0.0625,-0.0781 -0.1875,-0.0781 -0.14062,0 -0.40625,0.14062 -0.25,0.14063 -0.64062,0.40625 l -0.1875,-0.34375 2.0625,-1.21875 0.23437,0 q -0.0312,0.42188 -0.0312,1.15625 l 0,3.76563 z m 5.1651,0 q 0,0.25 0.0312,0.375 0.0312,0.125 0.0937,0.21875 0.0781,0.0781 0.21875,0.125 0.14063,0.0469 0.34375,0.0781 0.20313,0.0156 0.54688,0.0156 l 0,0.32812 -3.25,0 0,-0.32812 q 0.48437,-0.0156 0.6875,-0.0469 0.21875,-0.0469 0.32812,-0.10937 0.10938,-0.0781 0.15625,-0.21875 0.0625,-0.14063 0.0625,-0.4375 l 0,-3.57813 q 0,-0.17187 -0.0625,-0.25 -0.0625,-0.0781 -0.1875,-0.0781 -0.14062,0 -0.40625,0.14062 -0.25,0.14063 -0.64062,0.40625 l -0.1875,-0.34375 2.0625,-1.21875 0.23437,0 q -0.0312,0.42188 -0.0312,1.15625 l 0,3.76563 z" />
  <path
     style="fill:#000000;fill-opacity:0;fill-rule:nonzero"
     inkscape:connector-curvature="0"
     id="path123"
     d="m 543.234,261.10318 43.47833,0 0,15.40158 -43.47833,0 z" />
  <path
     style="fill:#000000;fill-rule:nonzero"
     inkscape:connector-curvature="0"
     id="path125"
     d="m 562.855,271.12332 q 0,0.25 0.0312,0.375 0.0312,0.125 0.0937,0.21875 0.0781,0.0781 0.21875,0.125 0.14063,0.0469 0.34375,0.0781 0.20313,0.0156 0.54688,0.0156 l 0,0.32812 -3.25,0 0,-0.32812 q 0.48437,-0.0156 0.6875,-0.0469 0.21875,-0.0469 0.32812,-0.10937 0.10938,-0.0781 0.15625,-0.21875 0.0625,-0.14063 0.0625,-0.4375 l 0,-3.57813 q 0,-0.17187 -0.0625,-0.25 -0.0625,-0.0781 -0.1875,-0.0781 -0.14062,0 -0.40625,0.14062 -0.25,0.14063 -0.64062,0.40625 l -0.1875,-0.34375 2.0625,-1.21875 0.23437,0 q -0.0312,0.42188 -0.0312,1.15625 l 0,3.76563 z m 5.19635,0.4375 q 0.21875,0 0.34375,-0.0156 0.14063,-0.0312 0.21875,-0.0937 0.0781,-0.0625 0.125,-0.15625 0.0469,-0.10937 0.125,-0.3125 l 0.375,0 -0.0781,1.28125 -3.625,0 0,-0.21875 q 0.1875,-0.45312 0.5,-0.9375 0.32812,-0.48437 0.92187,-1.14062 0.51563,-0.5625 0.73438,-0.84375 0.25,-0.32813 0.35937,-0.54688 0.125,-0.23437 0.17188,-0.4375 0.0625,-0.20312 0.0625,-0.42187 0,-0.32813 -0.10938,-0.57813 -0.0937,-0.25 -0.3125,-0.39062 -0.21875,-0.15625 -0.54687,-0.15625 -0.82813,0 -1.10938,0.92187 l -0.53125,0 0,-0.84375 q 0.53125,-0.25 0.98438,-0.35937 0.46875,-0.10938 0.84375,-0.10938 0.8125,0 1.21875,0.35938 0.42187,0.34375 0.42187,1.03125 0,0.23437 -0.0469,0.4375 -0.0312,0.1875 -0.14063,0.375 -0.0937,0.1875 -0.26562,0.42187 -0.15625,0.21875 -0.35938,0.45313 -0.20312,0.21875 -0.70312,0.73437 -0.84375,0.89063 -1.23438,1.54688 l 1.65625,0 z" />
  <path
     style="fill:#000000;fill-opacity:0;fill-rule:nonzero"
     inkscape:connector-curvature="0"
     id="path127"
     d="m 586.71234,261.10318 43.47839,0 0,15.40158 -43.47839,0 z" />
  <path
     style="fill:#000000;fill-rule:nonzero"
     inkscape:connector-curvature="0"
     id="path129"
     d="m 606.3333,271.12332 q 0,0.25 0.0312,0.375 0.0312,0.125 0.0937,0.21875 0.0781,0.0781 0.21875,0.125 0.14062,0.0469 0.34375,0.0781 0.20312,0.0156 0.54687,0.0156 l 0,0.32812 -3.25,0 0,-0.32812 q 0.48438,-0.0156 0.6875,-0.0469 0.21875,-0.0469 0.32813,-0.10937 0.10937,-0.0781 0.15625,-0.21875 0.0625,-0.14063 0.0625,-0.4375 l 0,-3.57813 q 0,-0.17187 -0.0625,-0.25 -0.0625,-0.0781 -0.1875,-0.0781 -0.14063,0 -0.40625,0.14062 -0.25,0.14063 -0.64063,0.40625 l -0.1875,-0.34375 2.0625,-1.21875 0.23438,0 q -0.0312,0.42188 -0.0312,1.15625 l 0,3.76563 z m 2.82135,-3.60938 0,-0.84375 q 0.5,-0.23437 0.9375,-0.34375 0.45313,-0.125 0.875,-0.125 0.48438,0 0.85938,0.15625 0.375,0.14063 0.57812,0.4375 0.20313,0.28125 0.20313,0.6875 0,0.375 -0.15625,0.65625 -0.15625,0.28125 -0.42188,0.5 -0.26562,0.20313 -0.70312,0.40625 l 0,0.0312 q 0.26562,0.0469 0.51562,0.17188 0.25,0.10937 0.4375,0.29687 0.20313,0.1875 0.3125,0.45313 0.125,0.25 0.125,0.57812 0,0.51563 -0.23437,0.90625 -0.21875,0.39063 -0.67188,0.625 -0.45312,0.23438 -1.10937,0.23438 -0.375,0 -0.8125,-0.0781 -0.4375,-0.0937 -0.79688,-0.23437 l 0,-0.9375 0.51563,0 q 0.15625,0.45312 0.40625,0.67187 0.25,0.20313 0.6875,0.20313 0.57812,0 0.85937,-0.3125 0.29688,-0.3125 0.29688,-0.92188 0,-0.65625 -0.39063,-0.98437 -0.375,-0.34375 -1.125,-0.34375 l -0.39062,0 0,-0.39063 q 0.59375,-0.0312 1,-0.21875 0.40625,-0.20312 0.59375,-0.5 0.20312,-0.29687 0.20312,-0.6875 0,-0.48437 -0.26562,-0.75 -0.25,-0.26562 -0.75,-0.26562 -0.40625,0 -0.67188,0.23437 -0.26562,0.21875 -0.39062,0.6875 l -0.51563,0 z" />
  <path
     style="fill:#000000;fill-opacity:0;fill-rule:nonzero"
     inkscape:connector-curvature="0"
     id="path131"
     d="m 630.19073,261.10318 43.47833,0 0,15.40158 -43.47833,0 z" />
  <path
     style="fill:#000000;fill-rule:nonzero"
     inkscape:connector-curvature="0"
     id="path133"
     d="m 649.8117,271.12332 q 0,0.25 0.0312,0.375 0.0312,0.125 0.0937,0.21875 0.0781,0.0781 0.21875,0.125 0.14062,0.0469 0.34375,0.0781 0.20312,0.0156 0.54687,0.0156 l 0,0.32812 -3.25,0 0,-0.32812 q 0.48438,-0.0156 0.6875,-0.0469 0.21875,-0.0469 0.32813,-0.10937 0.10937,-0.0781 0.15625,-0.21875 0.0625,-0.14063 0.0625,-0.4375 l 0,-3.57813 q 0,-0.17187 -0.0625,-0.25 -0.0625,-0.0781 -0.1875,-0.0781 -0.14063,0 -0.40625,0.14062 -0.25,0.14063 -0.64063,0.40625 l -0.1875,-0.34375 2.0625,-1.21875 0.23438,0 q -0.0312,0.42188 -0.0312,1.15625 l 0,3.76563 z m 4.38385,0.92187 q 0.28125,-0.0625 0.35938,-0.14062 0.0937,-0.0937 0.125,-0.25 0.0312,-0.17188 0.0312,-0.48438 l 0,-0.71875 -2.4375,0 0,-0.34375 2.5625,-3.875 0.625,0 0,3.78125 0.0937,0 q 0.26562,0 0.375,-0.0312 0.10937,-0.0469 0.17187,-0.14062 0.0781,-0.0937 0.14063,-0.29688 l 0.32812,0 -0.0469,0.90625 -1.0625,0 0,0.71875 q 0,0.29688 0.0156,0.4375 0.0312,0.125 0.0781,0.20313 0.0469,0.0781 0.125,0.14062 0.0937,0.0469 0.29687,0.0937 l 0,0.21875 -1.78125,0 0,-0.21875 z m -1.20312,-2.03125 1.71875,0 0,-1.09375 q 0,-0.40625 0.0156,-0.92187 0.0156,-0.51563 0.0312,-0.76563 l -0.0469,0 -1.71875,2.71875 0,0.0625 z" />
  <path
     style="fill:#000000;fill-opacity:0;fill-rule:nonzero"
     inkscape:connector-curvature="0"
     id="path135"
     d="m 673.66907,261.10318 43.47839,0 0,15.40158 -43.47839,0 z" />
  <path
     style="fill:#000000;fill-rule:nonzero"
     inkscape:connector-curvature="0"
     id="path137"
     d="m 693.29004,271.12332 q 0,0.25 0.0312,0.375 0.0312,0.125 0.0937,0.21875 0.0781,0.0781 0.21875,0.125 0.14062,0.0469 0.34375,0.0781 0.20312,0.0156 0.54687,0.0156 l 0,0.32812 -3.25,0 0,-0.32812 q 0.48438,-0.0156 0.6875,-0.0469 0.21875,-0.0469 0.32813,-0.10937 0.10937,-0.0781 0.15625,-0.21875 0.0625,-0.14063 0.0625,-0.4375 l 0,-3.57813 q 0,-0.17187 -0.0625,-0.25 -0.0625,-0.0781 -0.1875,-0.0781 -0.14063,0 -0.40625,0.14062 -0.25,0.14063 -0.64063,0.40625 l -0.1875,-0.34375 2.0625,-1.21875 0.23438,0 q -0.0312,0.42188 -0.0312,1.15625 l 0,3.76563 z m 2.77448,0.90625 0,-0.9375 0.53125,0 q 0.14062,0.45312 0.40625,0.67187 0.26562,0.20313 0.6875,0.20313 0.57812,0 0.875,-0.34375 0.29687,-0.35938 0.29687,-1.0625 0,-0.46875 -0.15625,-0.76563 -0.15625,-0.3125 -0.42187,-0.4375 -0.26563,-0.14062 -0.625,-0.14062 -0.29688,0 -0.51563,0.0312 -0.21875,0.0312 -0.45312,0.10937 l -0.35938,-0.20312 0,-2.89063 2.42188,0 q 0.15625,0 0.21875,-0.0156 0.0625,-0.0312 0.0937,-0.0781 0.0469,-0.0469 0.0937,-0.1875 l 0.34375,0 -0.0625,1.01563 -2.53125,0 0,1.92187 q 0.23437,-0.0937 0.5,-0.14062 0.26562,-0.0469 0.54687,-0.0469 0.51563,0 0.92188,0.21875 0.40625,0.20313 0.625,0.59375 0.21875,0.39063 0.21875,0.92188 0,0.57812 -0.25,1 -0.25,0.42187 -0.71875,0.65625 -0.45313,0.21875 -1.09375,0.21875 -0.76563,0 -1.59375,-0.3125 z" />
  <path
     style="fill:#000000;fill-opacity:0;fill-rule:nonzero"
     inkscape:connector-curvature="0"
     id="path139"
     d="m 727.4631,82.397137 106.48822,0 0,77.102363 -106.48822,0 z" />
  <path
     style="stroke:#000000;stroke-width:1;stroke-linecap:butt;stroke-linejoin:round"
     inkscape:connector-curvature="0"
     id="path141"
     d="m 727.4631,82.397137 106.48822,0 0,77.102363 -106.48822,0 z" />
  <path
     style="fill:#000000;fill-rule:nonzero"
     inkscape:connector-curvature="0"
     id="path143"
     d="m 738.9787,116.51526 q -0.125,0.5625 -0.15625,0.85938 -0.0312,0.3125 -0.0312,0.51562 0,0.34375 0.10937,0.54688 0.125,0.20312 0.375,0.29687 0.25,0.10938 0.8125,0.17188 l -0.0937,0.57812 -3.625,0 2.96875,-13.04687 q 0.21875,-0.98438 0.21875,-1.6875 0,-0.32813 -0.10937,-0.5 -0.0937,-0.1875 -0.32813,-0.26563 -0.23437,-0.0937 -0.8125,-0.125 l 0.14063,-0.625 2.65625,-0.10937 0.67187,0 -0.78125,3.04687 0.14063,0.0469 q 2.15625,-3.17188 4.3125,-3.17188 1.26562,0 1.96875,0.96875 0.71875,0.96875 0.71875,2.75 0,1.26563 -0.34375,2.54688 -0.34375,1.26562 -0.96875,2.29687 -0.60938,1.03125 -1.375,1.70313 -0.75,0.65625 -1.59375,0.98437 -0.82813,0.32813 -1.75,0.32813 -1.5625,0 -2.59375,-0.6875 l -0.53125,2.57812 z m 1.40625,-6.15625 q -0.125,0.625 -0.15625,0.95313 -0.0312,0.32812 -0.0312,0.64062 0,0.90625 0.39062,1.32813 0.40625,0.42187 1.35938,0.42187 0.59375,0 1.09375,-0.23437 0.51562,-0.23438 0.96875,-0.67188 0.45312,-0.45312 0.8125,-1.07812 0.35937,-0.64063 0.64062,-1.48438 0.29688,-0.84375 0.4375,-1.71875 0.15625,-0.89062 0.15625,-1.65625 0,-1.23437 -0.35937,-1.82812 -0.34375,-0.60938 -1.09375,-0.60938 -0.59375,0 -1.17188,0.40625 -0.57812,0.39063 -1.28125,1.28125 -0.6875,0.89063 -1.07812,1.76563 -0.375,0.85937 -0.59375,1.98437 l -0.0937,0.5 z" />
  <path
     style="fill:#000000;fill-rule:nonzero"
     inkscape:connector-curvature="0"
     id="path145"
     d="m 755.8459,105.96838 0,-1.64063 10.39063,0 0,1.64063 -10.39063,0 z m 0,4.85937 0,-1.625 10.39063,0 0,1.625 -10.39063,0 z m 25.35547,1.73438 q 0.5625,0 0.90625,-0.0625 0.35937,-0.0781 0.5625,-0.23438 0.21875,-0.17187 0.34375,-0.4375 0.125,-0.26562 0.3125,-0.8125 l 1,0 -0.20313,3.42188 -9.64062,0 0,-0.5625 q 0.5,-1.23438 1.35937,-2.51563 0.85938,-1.29687 2.42188,-3.04687 1.35937,-1.5 1.95312,-2.26563 0.65625,-0.84375 0.98438,-1.45312 0.32812,-0.625 0.46875,-1.17188 0.14062,-0.54687 0.14062,-1.09375 0,-0.875 -0.28125,-1.54687 -0.28125,-0.67188 -0.875,-1.062503 -0.57812,-0.39063 -1.45312,-0.39063 -2.1875,0 -2.95313,2.437503 l -1.42187,0 0,-2.250003 q 1.42187,-0.67187 2.65625,-0.96875 1.23437,-0.29687 2.21875,-0.29687 2.1875,0 3.29687,0.95312 1.10938,0.953133 1.10938,2.781253 0,0.60938 -0.125,1.14063 -0.10938,0.51562 -0.375,1.03125 -0.26563,0.5 -0.71875,1.09375 -0.4375,0.57812 -0.98438,1.1875 -0.53125,0.60937 -1.85937,2.01562 -2.21875,2.34375 -3.26563,4.10938 l 4.42188,0 z m 6.82031,1.23437 0,-2.48437 1.40625,0 q 0.35938,1.1875 1.0625,1.75 0.71875,0.5625 1.84375,0.5625 1.54688,0 2.34375,-0.9375 0.79688,-0.9375 0.79688,-2.79688 0,-1.25 -0.42188,-2.0625 -0.42187,-0.8125 -1.14062,-1.17187 -0.70313,-0.35938 -1.65625,-0.35938 -0.79688,0 -1.375,0.0937 -0.5625,0.0937 -1.21875,0.3125 l -0.9375,-0.54687 0,-7.718753 6.45312,0 q 0.39063,0 0.5625,-0.0625 0.1875,-0.0625 0.28125,-0.1875 0.10938,-0.14063 0.25,-0.51563 l 0.92188,0 -0.17188,2.718753 -6.75,0 0,5.14063 q 0.60938,-0.26563 1.32813,-0.39063 0.71875,-0.125 1.4375,-0.125 1.39062,0 2.46875,0.57813 1.07812,0.5625 1.65625,1.60937 0.59375,1.04688 0.59375,2.42188 0,1.57812 -0.65625,2.70312 -0.65625,1.125 -1.90625,1.71875 -1.23438,0.57813 -2.9375,0.57813 -2.03125,0 -4.23438,-0.82813 z" />
  <path
     style="fill:#000000;fill-rule:nonzero"
     inkscape:connector-curvature="0"
     id="path147"
     d="m 739.19745,142.85901 -1.07813,0.76563 -0.75,-0.1875 3.03125,-13.39063 q 0.0781,-0.29687 0.17188,-0.84375 0.0937,-0.5625 0.0937,-0.89062 0,-0.5 -0.29688,-0.6875 -0.29687,-0.20313 -1.0625,-0.23438 l 0.14063,-0.60937 2.95312,-0.10938 0.6875,0 -2.0625,8.20313 0.15625,0.0469 q 1.125,-1.51562 2.125,-2.1875 1,-0.6875 2,-0.6875 1.26563,0 1.96875,0.96875 0.71875,0.96875 0.71875,2.75 0,1.26563 -0.34375,2.54688 -0.34375,1.26562 -0.96875,2.29687 -0.60937,1.03125 -1.375,1.70313 -0.75,0.65625 -1.59375,0.98437 -0.82812,0.32813 -1.75,0.32813 -1.5625,0 -2.76562,-0.76563 z m 1.03125,-3.5 q -0.125,0.53125 -0.15625,0.90625 -0.0156,0.35938 -0.0156,0.6875 0,0.92188 0.39063,1.34375 0.40625,0.40625 1.34375,0.40625 0.60937,0 1.10937,-0.23437 0.51563,-0.23438 0.96875,-0.6875 0.45313,-0.45313 0.8125,-1.09375 0.375,-0.65625 0.65625,-1.46875 0.28125,-0.82813 0.42188,-1.71875 0.15625,-0.89063 0.15625,-1.64063 0,-1.21875 -0.35938,-1.82812 -0.34375,-0.60938 -1.09375,-0.60938 -0.5625,0 -1.10937,0.35938 -0.54688,0.34375 -1.21875,1.17187 -0.67188,0.82813 -1.09375,1.70313 -0.42188,0.85937 -0.70313,2.20312 l -0.10937,0.5 z" />
  <path
     style="fill:#000000;fill-rule:nonzero"
     inkscape:connector-curvature="0"
     id="path149"
     d="m 755.70526,134.96838 0,-1.64063 10.39062,0 0,1.64063 -10.39062,0 z m 0,4.85937 0,-1.625 10.39062,0 0,1.625 -10.39062,0 z m 25.26172,0.54688 q 0,0.6875 0.0781,1.03125 0.0781,0.34375 0.26563,0.5625 0.20312,0.21875 0.5625,0.34375 0.35937,0.10937 0.90625,0.1875 0.5625,0.0625 1.46875,0.0781 l 0,0.85938 -8.67188,0 0,-0.85938 q 1.3125,-0.0625 1.85938,-0.15625 0.5625,-0.0937 0.84375,-0.29687 0.29687,-0.20313 0.4375,-0.5625 0.14062,-0.35938 0.14062,-1.1875 l 0,-9.5 q 0,-0.46875 -0.17187,-0.6875 -0.15625,-0.21875 -0.48438,-0.21875 -0.375,0 -1.0625,0.39062 -0.6875,0.39063 -1.70312,1.0625 l -0.51563,-0.90625 5.48438,-3.26562 0.64062,0 q -0.0781,1.125 -0.0781,3.125 l 0,10 z m 15.82031,-12.48438 0,0.57813 q -1.79687,0 -3.20312,0.78125 -1.39063,0.76562 -2.3125,2.26562 -0.90625,1.5 -1.28125,3.5625 l 0.10937,0.0469 q 0.98438,-0.70313 1.9375,-1.03125 0.95313,-0.32813 2.07813,-0.32813 1.3125,0 2.25,0.57813 0.9375,0.57812 1.40625,1.64062 0.46875,1.04688 0.46875,2.45313 0,1.51562 -0.59375,2.6875 -0.57813,1.15625 -1.8125,1.82812 -1.21875,0.67188 -3.01563,0.67188 -2.5625,0 -3.875,-1.59375 -1.29687,-1.59375 -1.29687,-4.70313 0,-2.07812 0.65625,-3.89062 0.65625,-1.82813 1.85937,-3.17188 1.20313,-1.35937 2.79688,-2.14062 1.59375,-0.78125 3.35937,-0.875 l 0.46875,0.64062 z m -3.48437,7.10938 q -0.57813,0 -1.10938,0.125 -0.53125,0.125 -1,0.375 -0.46875,0.25 -0.92187,0.625 -0.14063,0.125 -0.20313,0.26562 -0.125,0.21875 -0.15625,0.54688 -0.0312,0.32812 -0.0312,1.10937 0,2.23438 0.75,3.40625 0.75,1.17188 2.26563,1.17188 0.89062,0 1.48437,-0.29688 0.59375,-0.3125 0.95313,-0.84375 0.375,-0.53125 0.53125,-1.25 0.17187,-0.71875 0.17187,-1.5625 0,-1.73437 -0.71875,-2.70312 -0.71875,-0.96875 -2.01562,-0.96875 z" />
  <path
     style="fill:#cccccc;fill-rule:nonzero"
     inkscape:connector-curvature="0"
     id="path151"
     d="m 27.13629,20.507377 32.138535,0 0,33.48031 -32.138535,0 z" />
  <path
     style="stroke:#000000;stroke-width:1;stroke-linecap:butt;stroke-linejoin:round"
     inkscape:connector-curvature="0"
     id="path153"
     d="m 27.13629,20.507377 32.138535,0 0,33.48031 -32.138535,0 z" />
  <path
     style="fill:#cccccc;fill-rule:nonzero"
     inkscape:connector-curvature="0"
     id="path155"
     d="m 27.13629,53.987687 32.138535,0 0,33.48032 -32.138535,0 z" />
  <path
     style="stroke:#000000;stroke-width:1;stroke-linecap:butt;stroke-linejoin:round"
     inkscape:connector-curvature="0"
     id="path157"
     d="m 27.13629,53.987687 32.138535,0 0,33.48032 -32.138535,0 z" />
  <path
     style="fill:#ffffff;fill-rule:nonzero"
     inkscape:connector-curvature="0"
     id="path159"
     d="m 27.13629,120.94832 32.138535,0 0,33.48032 -32.138535,0 z" />
  <path
     style="stroke:#000000;stroke-width:1;stroke-linecap:butt;stroke-linejoin:round"
     inkscape:connector-curvature="0"
     id="path161"
     d="m 27.13629,120.94832 32.138535,0 0,33.48032 -32.138535,0 z" />
  <path
     style="fill:#ffffff;fill-rule:nonzero"
     inkscape:connector-curvature="0"
     id="path163"
     d="m 27.13629,154.42864 32.138535,0 0,33.4803 -32.138535,0 z" />
  <path
     style="stroke:#000000;stroke-width:1;stroke-linecap:butt;stroke-linejoin:round"
     inkscape:connector-curvature="0"
     id="path165"
     d="m 27.13629,154.42864 32.138535,0 0,33.4803 -32.138535,0 z" />
  <path
     style="fill:#ffffff;fill-rule:nonzero"
     inkscape:connector-curvature="0"
     id="path167"
     d="m 27.13629,187.90894 32.138535,0 0,33.48032 -32.138535,0 z" />
  <path
     style="stroke:#000000;stroke-width:1;stroke-linecap:butt;stroke-linejoin:round"
     inkscape:connector-curvature="0"
     id="path169"
     d="m 27.13629,187.90894 32.138535,0 0,33.48032 -32.138535,0 z" />
  <path
     style="fill:#ffffff;fill-rule:nonzero"
     inkscape:connector-curvature="0"
     id="path171"
     d="m 70.61697,20.507377 32.13854,0 0,33.48031 -32.13854,0 z" />
  <path
     style="stroke:#000000;stroke-width:1;stroke-linecap:butt;stroke-linejoin:round"
     inkscape:connector-curvature="0"
     id="path173"
     d="m 70.61697,20.507377 32.13854,0 0,33.48031 -32.13854,0 z" />
  <path
     style="fill:#ffffff;fill-rule:nonzero"
     inkscape:connector-curvature="0"
     id="path175"
     d="m 70.61697,53.987687 32.13854,0 0,33.48032 -32.13854,0 z" />
  <path
     style="stroke:#000000;stroke-width:1;stroke-linecap:butt;stroke-linejoin:round"
     inkscape:connector-curvature="0"
     id="path177"
     d="m 70.61697,53.987687 32.13854,0 0,33.48032 -32.13854,0 z" />
  <path
     style="fill:#ffffff;fill-rule:nonzero"
     inkscape:connector-curvature="0"
     id="path179"
     d="m 70.61697,120.94832 32.13854,0 0,33.48032 -32.13854,0 z" />
  <path
     style="stroke:#000000;stroke-width:1;stroke-linecap:butt;stroke-linejoin:round"
     inkscape:connector-curvature="0"
     id="path181"
     d="m 70.61697,120.94832 32.13854,0 0,33.48032 -32.13854,0 z" />
  <path
     style="fill:#cccccc;fill-rule:nonzero"
     inkscape:connector-curvature="0"
     id="path183"
     d="m 70.61697,154.42864 32.13854,0 0,33.4803 -32.13854,0 z" />
  <path
     style="stroke:#000000;stroke-width:1;stroke-linecap:butt;stroke-linejoin:round"
     inkscape:connector-curvature="0"
     id="path185"
     d="m 70.61697,154.42864 32.13854,0 0,33.4803 -32.13854,0 z" />
  <path
     style="fill:#ffffff;fill-rule:nonzero"
     inkscape:connector-curvature="0"
     id="path187"
     d="m 70.61697,187.90894 32.13854,0 0,33.48032 -32.13854,0 z" />
  <path
     style="stroke:#000000;stroke-width:1;stroke-linecap:butt;stroke-linejoin:round"
     inkscape:connector-curvature="0"
     id="path189"
     d="m 70.61697,187.90894 32.13854,0 0,33.48032 -32.13854,0 z" />
  <path
     style="fill:#cccccc;fill-rule:nonzero"
     inkscape:connector-curvature="0"
     id="path191"
     d="m 157.58115,20.507377 32.13852,0 0,33.48031 -32.13852,0 z" />
  <path
     style="stroke:#000000;stroke-width:1;stroke-linecap:butt;stroke-linejoin:round"
     inkscape:connector-curvature="0"
     id="path193"
     d="m 157.58115,20.507377 32.13852,0 0,33.48031 -32.13852,0 z" />
  <path
     style="fill:#ffffff;fill-rule:nonzero"
     inkscape:connector-curvature="0"
     id="path195"
     d="m 157.58115,53.987687 32.13852,0 0,33.48032 -32.13852,0 z" />
  <path
     style="stroke:#000000;stroke-width:1;stroke-linecap:butt;stroke-linejoin:round"
     inkscape:connector-curvature="0"
     id="path197"
     d="m 157.58115,53.987687 32.13852,0 0,33.48032 -32.13852,0 z" />
  <path
     style="fill:#cccccc;fill-rule:nonzero"
     inkscape:connector-curvature="0"
     id="path199"
     d="m 157.58115,120.94832 32.13852,0 0,33.48032 -32.13852,0 z" />
  <path
     style="stroke:#000000;stroke-width:1;stroke-linecap:butt;stroke-linejoin:round"
     inkscape:connector-curvature="0"
     id="path201"
     d="m 157.58115,120.94832 32.13852,0 0,33.48032 -32.13852,0 z" />
  <path
     style="fill:#ffffff;fill-rule:nonzero"
     inkscape:connector-curvature="0"
     id="path203"
     d="m 157.58115,154.42864 32.13852,0 0,33.4803 -32.13852,0 z" />
  <path
     style="stroke:#000000;stroke-width:1;stroke-linecap:butt;stroke-linejoin:round"
     inkscape:connector-curvature="0"
     id="path205"
     d="m 157.58115,154.42864 32.13852,0 0,33.4803 -32.13852,0 z" />
  <path
     style="fill:#ffffff;fill-rule:nonzero"
     inkscape:connector-curvature="0"
     id="path207"
     d="m 157.58115,187.90894 32.13852,0 0,33.48032 -32.13852,0 z" />
  <path
     style="stroke:#000000;stroke-width:1;stroke-linecap:butt;stroke-linejoin:round"
     inkscape:connector-curvature="0"
     id="path209"
     d="m 157.58115,187.90894 32.13852,0 0,33.48032 -32.13852,0 z" />
  <path
     style="fill:#ffffff;fill-rule:nonzero"
     inkscape:connector-curvature="0"
     id="path211"
     d="m 114.10045,20.507377 32.13853,0 0,33.48031 -32.13853,0 z" />
  <path
     style="stroke:#000000;stroke-width:1;stroke-linecap:butt;stroke-linejoin:round"
     inkscape:connector-curvature="0"
     id="path213"
     d="m 114.10045,20.507377 32.13853,0 0,33.48031 -32.13853,0 z" />
  <path
     style="fill:#cccccc;fill-rule:nonzero"
     inkscape:connector-curvature="0"
     id="path215"
     d="m 114.10045,53.987687 32.13853,0 0,33.48032 -32.13853,0 z" />
  <path
     style="stroke:#000000;stroke-width:1;stroke-linecap:butt;stroke-linejoin:round"
     inkscape:connector-curvature="0"
     id="path217"
     d="m 114.10045,53.987687 32.13853,0 0,33.48032 -32.13853,0 z" />
  <path
     style="fill:#ffffff;fill-rule:nonzero"
     inkscape:connector-curvature="0"
     id="path219"
     d="m 114.10045,120.94832 32.13853,0 0,33.48032 -32.13853,0 z" />
  <path
     style="stroke:#000000;stroke-width:1;stroke-linecap:butt;stroke-linejoin:round"
     inkscape:connector-curvature="0"
     id="path221"
     d="m 114.10045,120.94832 32.13853,0 0,33.48032 -32.13853,0 z" />
  <path
     style="fill:#ffffff;fill-rule:nonzero"
     inkscape:connector-curvature="0"
     id="path223"
     d="m 114.10045,154.42864 32.13853,0 0,33.4803 -32.13853,0 z" />
  <path
     style="stroke:#000000;stroke-width:1;stroke-linecap:butt;stroke-linejoin:round"
     inkscape:connector-curvature="0"
     id="path225"
     d="m 114.10045,154.42864 32.13853,0 0,33.4803 -32.13853,0 z" />
  <path
     style="fill:#ffffff;fill-rule:nonzero"
     inkscape:connector-curvature="0"
     id="path227"
     d="m 114.10045,187.90894 32.13853,0 0,33.48032 -32.13853,0 z" />
  <path
     style="stroke:#000000;stroke-width:1;stroke-linecap:butt;stroke-linejoin:round"
     inkscape:connector-curvature="0"
     id="path229"
     d="m 114.10045,187.90894 32.13853,0 0,33.48032 -32.13853,0 z" />
  <path
     style="fill:#ffffff;fill-rule:nonzero"
     inkscape:connector-curvature="0"
     id="path231"
     d="m 201.06464,20.507377 32.13852,0 0,33.48031 -32.13852,0 z" />
  <path
     style="stroke:#000000;stroke-width:1;stroke-linecap:butt;stroke-linejoin:round"
     inkscape:connector-curvature="0"
     id="path233"
     d="m 201.06464,20.507377 32.13852,0 0,33.48031 -32.13852,0 z" />
  <path
     style="fill:#ffffff;fill-rule:nonzero"
     inkscape:connector-curvature="0"
     id="path235"
     d="m 201.06464,53.987687 32.13852,0 0,33.48032 -32.13852,0 z" />
  <path
     style="stroke:#000000;stroke-width:1;stroke-linecap:butt;stroke-linejoin:round"
     inkscape:connector-curvature="0"
     id="path237"
     d="m 201.06464,53.987687 32.13852,0 0,33.48032 -32.13852,0 z" />
  <path
     style="fill:#ffffff;fill-rule:nonzero"
     inkscape:connector-curvature="0"
     id="path239"
     d="m 201.06464,120.94832 32.13852,0 0,33.48032 -32.13852,0 z" />
  <path
     style="stroke:#000000;stroke-width:1;stroke-linecap:butt;stroke-linejoin:round"
     inkscape:connector-curvature="0"
     id="path241"
     d="m 201.06464,120.94832 32.13852,0 0,33.48032 -32.13852,0 z" />
  <path
     style="fill:#ffffff;fill-rule:nonzero"
     inkscape:connector-curvature="0"
     id="path243"
     d="m 201.06464,154.42864 32.13852,0 0,33.4803 -32.13852,0 z" />
  <path
     style="stroke:#000000;stroke-width:1;stroke-linecap:butt;stroke-linejoin:round"
     inkscape:connector-curvature="0"
     id="path245"
     d="m 201.06464,154.42864 32.13852,0 0,33.4803 -32.13852,0 z" />
  <path
     style="fill:#cccccc;fill-rule:nonzero"
     inkscape:connector-curvature="0"
     id="path247"
     d="m 201.06464,187.90894 32.13852,0 0,33.48032 -32.13852,0 z" />
  <path
     style="stroke:#000000;stroke-width:1;stroke-linecap:butt;stroke-linejoin:round"
     inkscape:connector-curvature="0"
     id="path249"
     d="m 201.06464,187.90894 32.13852,0 0,33.48032 -32.13852,0 z" />
  <path
     style="fill:#ffffff;fill-rule:nonzero"
     inkscape:connector-curvature="0"
     id="path251"
     d="m 244.5453,20.507377 32.13855,0 0,33.48031 -32.13855,0 z" />
  <path
     style="stroke:#000000;stroke-width:1;stroke-linecap:butt;stroke-linejoin:round"
     inkscape:connector-curvature="0"
     id="path253"
     d="m 244.5453,20.507377 32.13855,0 0,33.48031 -32.13855,0 z" />
  <path
     style="fill:#ffffff;fill-rule:nonzero"
     inkscape:connector-curvature="0"
     id="path255"
     d="m 244.5453,53.987687 32.13855,0 0,33.48032 -32.13855,0 z" />
  <path
     style="stroke:#000000;stroke-width:1;stroke-linecap:butt;stroke-linejoin:round"
     inkscape:connector-curvature="0"
     id="path257"
     d="m 244.5453,53.987687 32.13855,0 0,33.48032 -32.13855,0 z" />
  <path
     style="fill:#ffffff;fill-rule:nonzero"
     inkscape:connector-curvature="0"
     id="path259"
     d="m 244.5453,120.94832 32.13855,0 0,33.48032 -32.13855,0 z" />
  <path
     style="stroke:#000000;stroke-width:1;stroke-linecap:butt;stroke-linejoin:round"
     inkscape:connector-curvature="0"
     id="path261"
     d="m 244.5453,120.94832 32.13855,0 0,33.48032 -32.13855,0 z" />
  <path
     style="fill:#ffffff;fill-rule:nonzero"
     inkscape:connector-curvature="0"
     id="path263"
     d="m 244.5453,154.42864 32.13855,0 0,33.4803 -32.13855,0 z" />
  <path
     style="stroke:#000000;stroke-width:1;stroke-linecap:butt;stroke-linejoin:round"
     inkscape:connector-curvature="0"
     id="path265"
     d="m 244.5453,154.42864 32.13855,0 0,33.4803 -32.13855,0 z" />
  <path
     style="fill:#ffffff;fill-rule:nonzero"
     inkscape:connector-curvature="0"
     id="path267"
     d="m 244.5453,187.90894 32.13855,0 0,33.48032 -32.13855,0 z" />
  <path
     style="stroke:#000000;stroke-width:1;stroke-linecap:butt;stroke-linejoin:round"
     inkscape:connector-curvature="0"
     id="path269"
     d="m 244.5453,187.90894 32.13855,0 0,33.48032 -32.13855,0 z" />
  <path
     style="fill:#ffffff;fill-rule:nonzero"
     inkscape:connector-curvature="0"
     id="path271"
     d="m 331.50946,20.507377 32.13855,0 0,33.48031 -32.13855,0 z" />
  <path
     style="stroke:#000000;stroke-width:1;stroke-linecap:butt;stroke-linejoin:round"
     inkscape:connector-curvature="0"
     id="path273"
     d="m 331.50946,20.507377 32.13855,0 0,33.48031 -32.13855,0 z" />
  <path
     style="fill:#ffffff;fill-rule:nonzero"
     inkscape:connector-curvature="0"
     id="path275"
     d="m 331.50946,53.987687 32.13855,0 0,33.48032 -32.13855,0 z" />
  <path
     style="stroke:#000000;stroke-width:1;stroke-linecap:butt;stroke-linejoin:round"
     inkscape:connector-curvature="0"
     id="path277"
     d="m 331.50946,53.987687 32.13855,0 0,33.48032 -32.13855,0 z" />
  <path
     style="fill:#cccccc;fill-rule:nonzero"
     inkscape:connector-curvature="0"
     id="path279"
     d="m 331.50946,120.94832 32.13855,0 0,33.48032 -32.13855,0 z" />
  <path
     style="stroke:#000000;stroke-width:1;stroke-linecap:butt;stroke-linejoin:round"
     inkscape:connector-curvature="0"
     id="path281"
     d="m 331.50946,120.94832 32.13855,0 0,33.48032 -32.13855,0 z" />
  <path
     style="fill:#ffffff;fill-rule:nonzero"
     inkscape:connector-curvature="0"
     id="path283"
     d="m 331.50946,154.42864 32.13855,0 0,33.4803 -32.13855,0 z" />
  <path
     style="stroke:#000000;stroke-width:1;stroke-linecap:butt;stroke-linejoin:round"
     inkscape:connector-curvature="0"
     id="path285"
     d="m 331.50946,154.42864 32.13855,0 0,33.4803 -32.13855,0 z" />
  <path
     style="fill:#cccccc;fill-rule:nonzero"
     inkscape:connector-curvature="0"
     id="path287"
     d="m 331.50946,187.90894 32.13855,0 0,33.48032 -32.13855,0 z" />
  <path
     style="stroke:#000000;stroke-width:1;stroke-linecap:butt;stroke-linejoin:round"
     inkscape:connector-curvature="0"
     id="path289"
     d="m 331.50946,187.90894 32.13855,0 0,33.48032 -32.13855,0 z" />
  <path
     style="fill:#ffffff;fill-rule:nonzero"
     inkscape:connector-curvature="0"
     id="path291"
     d="m 288.02878,20.507377 32.13855,0 0,33.48031 -32.13855,0 z" />
  <path
     style="stroke:#000000;stroke-width:1;stroke-linecap:butt;stroke-linejoin:round"
     inkscape:connector-curvature="0"
     id="path293"
     d="m 288.02878,20.507377 32.13855,0 0,33.48031 -32.13855,0 z" />
  <path
     style="fill:#cccccc;fill-rule:nonzero"
     inkscape:connector-curvature="0"
     id="path295"
     d="m 288.02878,53.987687 32.13855,0 0,33.48032 -32.13855,0 z" />
  <path
     style="stroke:#000000;stroke-width:1;stroke-linecap:butt;stroke-linejoin:round"
     inkscape:connector-curvature="0"
     id="path297"
     d="m 288.02878,53.987687 32.13855,0 0,33.48032 -32.13855,0 z" />
  <path
     style="fill:#ffffff;fill-rule:nonzero"
     inkscape:connector-curvature="0"
     id="path299"
     d="m 288.02878,120.94832 32.13855,0 0,33.48032 -32.13855,0 z" />
  <path
     style="stroke:#000000;stroke-width:1;stroke-linecap:butt;stroke-linejoin:round"
     inkscape:connector-curvature="0"
     id="path301"
     d="m 288.02878,120.94832 32.13855,0 0,33.48032 -32.13855,0 z" />
  <path
     style="fill:#ffffff;fill-rule:nonzero"
     inkscape:connector-curvature="0"
     id="path303"
     d="m 288.02878,154.42864 32.13855,0 0,33.4803 -32.13855,0 z" />
  <path
     style="stroke:#000000;stroke-width:1;stroke-linecap:butt;stroke-linejoin:round"
     inkscape:connector-curvature="0"
     id="path305"
     d="m 288.02878,154.42864 32.13855,0 0,33.4803 -32.13855,0 z" />
  <path
     style="fill:#ffffff;fill-rule:nonzero"
     inkscape:connector-curvature="0"
     id="path307"
     d="m 288.02878,187.90894 32.13855,0 0,33.48032 -32.13855,0 z" />
  <path
     style="stroke:#000000;stroke-width:1;stroke-linecap:butt;stroke-linejoin:round"
     inkscape:connector-curvature="0"
     id="path309"
     d="m 288.02878,187.90894 32.13855,0 0,33.48032 -32.13855,0 z" />
  <path
     style="fill:#cccccc;fill-rule:nonzero"
     inkscape:connector-curvature="0"
     id="path311"
     d="m 374.99295,20.507377 32.13852,0 0,33.48031 -32.13852,0 z" />
  <path
     style="stroke:#000000;stroke-width:1;stroke-linecap:butt;stroke-linejoin:round"
     inkscape:connector-curvature="0"
     id="path313"
     d="m 374.99295,20.507377 32.13852,0 0,33.48031 -32.13852,0 z" />
  <path
     style="fill:#ffffff;fill-rule:nonzero"
     inkscape:connector-curvature="0"
     id="path315"
     d="m 374.99295,53.987687 32.13852,0 0,33.48032 -32.13852,0 z" />
  <path
     style="stroke:#000000;stroke-width:1;stroke-linecap:butt;stroke-linejoin:round"
     inkscape:connector-curvature="0"
     id="path317"
     d="m 374.99295,53.987687 32.13852,0 0,33.48032 -32.13852,0 z" />
  <path
     style="fill:#ffffff;fill-rule:nonzero"
     inkscape:connector-curvature="0"
     id="path319"
     d="m 374.99295,120.94832 32.13852,0 0,33.48032 -32.13852,0 z" />
  <path
     style="stroke:#000000;stroke-width:1;stroke-linecap:butt;stroke-linejoin:round"
     inkscape:connector-curvature="0"
     id="path321"
     d="m 374.99295,120.94832 32.13852,0 0,33.48032 -32.13852,0 z" />
  <path
     style="fill:#cccccc;fill-rule:nonzero"
     inkscape:connector-curvature="0"
     id="path323"
     d="m 374.99295,154.42864 32.13852,0 0,33.4803 -32.13852,0 z" />
  <path
     style="stroke:#000000;stroke-width:1;stroke-linecap:butt;stroke-linejoin:round"
     inkscape:connector-curvature="0"
     id="path325"
     d="m 374.99295,154.42864 32.13852,0 0,33.4803 -32.13852,0 z" />
  <path
     style="fill:#ffffff;fill-rule:nonzero"
     inkscape:connector-curvature="0"
     id="path327"
     d="m 374.99295,187.90894 32.13852,0 0,33.48032 -32.13852,0 z" />
  <path
     style="stroke:#000000;stroke-width:1;stroke-linecap:butt;stroke-linejoin:round"
     inkscape:connector-curvature="0"
     id="path329"
     d="m 374.99295,187.90894 32.13852,0 0,33.48032 -32.13852,0 z" />
  <path
     style="fill:#ffffff;fill-rule:nonzero"
     inkscape:connector-curvature="0"
     id="path331"
     d="m 418.47363,20.507377 32.13852,0 0,33.48031 -32.13852,0 z" />
  <path
     style="stroke:#000000;stroke-width:1;stroke-linecap:butt;stroke-linejoin:round"
     inkscape:connector-curvature="0"
     id="path333"
     d="m 418.47363,20.507377 32.13852,0 0,33.48031 -32.13852,0 z" />
  <path
     style="fill:#ffffff;fill-rule:nonzero"
     inkscape:connector-curvature="0"
     id="path335"
     d="m 418.47363,53.987687 32.13852,0 0,33.48032 -32.13852,0 z" />
  <path
     style="stroke:#000000;stroke-width:1;stroke-linecap:butt;stroke-linejoin:round"
     inkscape:connector-curvature="0"
     id="path337"
     d="m 418.47363,53.987687 32.13852,0 0,33.48032 -32.13852,0 z" />
  <path
     style="fill:#ffffff;fill-rule:nonzero"
     inkscape:connector-curvature="0"
     id="path339"
     d="m 418.47363,120.94832 32.13852,0 0,33.48032 -32.13852,0 z" />
  <path
     style="stroke:#000000;stroke-width:1;stroke-linecap:butt;stroke-linejoin:round"
     inkscape:connector-curvature="0"
     id="path341"
     d="m 418.47363,120.94832 32.13852,0 0,33.48032 -32.13852,0 z" />
  <path
     style="fill:#ffffff;fill-rule:nonzero"
     inkscape:connector-curvature="0"
     id="path343"
     d="m 418.47363,154.42864 32.13852,0 0,33.4803 -32.13852,0 z" />
  <path
     style="stroke:#000000;stroke-width:1;stroke-linecap:butt;stroke-linejoin:round"
     inkscape:connector-curvature="0"
     id="path345"
     d="m 418.47363,154.42864 32.13852,0 0,33.4803 -32.13852,0 z" />
  <path
     style="fill:#ffffff;fill-rule:nonzero"
     inkscape:connector-curvature="0"
     id="path347"
     d="m 418.47363,187.90894 32.13852,0 0,33.48032 -32.13852,0 z" />
  <path
     style="stroke:#000000;stroke-width:1;stroke-linecap:butt;stroke-linejoin:round"
     inkscape:connector-curvature="0"
     id="path349"
     d="m 418.47363,187.90894 32.13852,0 0,33.48032 -32.13852,0 z" />
  <path
     style="fill:#ffffff;fill-rule:nonzero"
     inkscape:connector-curvature="0"
     id="path351"
     d="m 505.4378,20.507377 32.13849,0 0,33.48031 -32.13849,0 z" />
  <path
     style="stroke:#000000;stroke-width:1;stroke-linecap:butt;stroke-linejoin:round"
     inkscape:connector-curvature="0"
     id="path353"
     d="m 505.4378,20.507377 32.13849,0 0,33.48031 -32.13849,0 z" />
  <path
     style="fill:#ffffff;fill-rule:nonzero"
     inkscape:connector-curvature="0"
     id="path355"
     d="m 505.4378,53.987687 32.13849,0 0,33.48032 -32.13849,0 z" />
  <path
     style="stroke:#000000;stroke-width:1;stroke-linecap:butt;stroke-linejoin:round"
     inkscape:connector-curvature="0"
     id="path357"
     d="m 505.4378,53.987687 32.13849,0 0,33.48032 -32.13849,0 z" />
  <path
     style="fill:#ffffff;fill-rule:nonzero"
     inkscape:connector-curvature="0"
     id="path359"
     d="m 505.4378,120.94832 32.13849,0 0,33.48032 -32.13849,0 z" />
  <path
     style="stroke:#000000;stroke-width:1;stroke-linecap:butt;stroke-linejoin:round"
     inkscape:connector-curvature="0"
     id="path361"
     d="m 505.4378,120.94832 32.13849,0 0,33.48032 -32.13849,0 z" />
  <path
     style="fill:#ffffff;fill-rule:nonzero"
     inkscape:connector-curvature="0"
     id="path363"
     d="m 505.4378,154.42864 32.13849,0 0,33.4803 -32.13849,0 z" />
  <path
     style="stroke:#000000;stroke-width:1;stroke-linecap:butt;stroke-linejoin:round"
     inkscape:connector-curvature="0"
     id="path365"
     d="m 505.4378,154.42864 32.13849,0 0,33.4803 -32.13849,0 z" />
  <path
     style="fill:#ffffff;fill-rule:nonzero"
     inkscape:connector-curvature="0"
     id="path367"
     d="m 505.4378,187.90894 32.13849,0 0,33.48032 -32.13849,0 z" />
  <path
     style="stroke:#000000;stroke-width:1;stroke-linecap:butt;stroke-linejoin:round"
     inkscape:connector-curvature="0"
     id="path369"
     d="m 505.4378,187.90894 32.13849,0 0,33.48032 -32.13849,0 z" />
  <path
     style="fill:#cccccc;fill-rule:nonzero"
     inkscape:connector-curvature="0"
     id="path371"
     d="m 461.9571,20.507377 32.13855,0 0,33.48031 -32.13855,0 z" />
  <path
     style="stroke:#000000;stroke-width:1;stroke-linecap:butt;stroke-linejoin:round"
     inkscape:connector-curvature="0"
     id="path373"
     d="m 461.9571,20.507377 32.13855,0 0,33.48031 -32.13855,0 z" />
  <path
     style="fill:#ffffff;fill-rule:nonzero"
     inkscape:connector-curvature="0"
     id="path375"
     d="m 461.9571,53.987687 32.13855,0 0,33.48032 -32.13855,0 z" />
  <path
     style="stroke:#000000;stroke-width:1;stroke-linecap:butt;stroke-linejoin:round"
     inkscape:connector-curvature="0"
     id="path377"
     d="m 461.9571,53.987687 32.13855,0 0,33.48032 -32.13855,0 z" />
  <path
     style="fill:#cccccc;fill-rule:nonzero"
     inkscape:connector-curvature="0"
     id="path379"
     d="m 461.9571,120.94832 32.13855,0 0,33.48032 -32.13855,0 z" />
  <path
     style="stroke:#000000;stroke-width:1;stroke-linecap:butt;stroke-linejoin:round"
     inkscape:connector-curvature="0"
     id="path381"
     d="m 461.9571,120.94832 32.13855,0 0,33.48032 -32.13855,0 z" />
  <path
     style="fill:#ffffff;fill-rule:nonzero"
     inkscape:connector-curvature="0"
     id="path383"
     d="m 461.9571,154.42864 32.13855,0 0,33.4803 -32.13855,0 z" />
  <path
     style="stroke:#000000;stroke-width:1;stroke-linecap:butt;stroke-linejoin:round"
     inkscape:connector-curvature="0"
     id="path385"
     d="m 461.9571,154.42864 32.13855,0 0,33.4803 -32.13855,0 z" />
  <path
     style="fill:#ffffff;fill-rule:nonzero"
     inkscape:connector-curvature="0"
     id="path387"
     d="m 461.9571,187.90894 32.13855,0 0,33.48032 -32.13855,0 z" />
  <path
     style="stroke:#000000;stroke-width:1;stroke-linecap:butt;stroke-linejoin:round"
     inkscape:connector-curvature="0"
     id="path389"
     d="m 461.9571,187.90894 32.13855,0 0,33.48032 -32.13855,0 z" />
  <path
     style="fill:#ffffff;fill-rule:nonzero"
     inkscape:connector-curvature="0"
     id="path391"
     d="m 548.92126,20.507377 32.13855,0 0,33.48031 -32.13855,0 z" />
  <path
     style="stroke:#000000;stroke-width:1;stroke-linecap:butt;stroke-linejoin:round"
     inkscape:connector-curvature="0"
     id="path393"
     d="m 548.92126,20.507377 32.13855,0 0,33.48031 -32.13855,0 z" />
  <path
     style="fill:#cccccc;fill-rule:nonzero"
     inkscape:connector-curvature="0"
     id="path395"
     d="m 548.92126,53.987687 32.13855,0 0,33.48032 -32.13855,0 z" />
  <path
     style="stroke:#000000;stroke-width:1;stroke-linecap:butt;stroke-linejoin:round"
     inkscape:connector-curvature="0"
     id="path397"
     d="m 548.92126,53.987687 32.13855,0 0,33.48032 -32.13855,0 z" />
  <path
     style="fill:#ffffff;fill-rule:nonzero"
     inkscape:connector-curvature="0"
     id="path399"
     d="m 548.92126,120.94832 32.13855,0 0,33.48032 -32.13855,0 z" />
  <path
     style="stroke:#000000;stroke-width:1;stroke-linecap:butt;stroke-linejoin:round"
     inkscape:connector-curvature="0"
     id="path401"
     d="m 548.92126,120.94832 32.13855,0 0,33.48032 -32.13855,0 z" />
  <path
     style="fill:#ffffff;fill-rule:nonzero"
     inkscape:connector-curvature="0"
     id="path403"
     d="m 548.92126,154.42864 32.13855,0 0,33.4803 -32.13855,0 z" />
  <path
     style="stroke:#000000;stroke-width:1;stroke-linecap:butt;stroke-linejoin:round"
     inkscape:connector-curvature="0"
     id="path405"
     d="m 548.92126,154.42864 32.13855,0 0,33.4803 -32.13855,0 z" />
  <path
     style="fill:#ffffff;fill-rule:nonzero"
     inkscape:connector-curvature="0"
     id="path407"
     d="m 548.92126,187.90894 32.13855,0 0,33.48032 -32.13855,0 z" />
  <path
     style="stroke:#000000;stroke-width:1;stroke-linecap:butt;stroke-linejoin:round"
     inkscape:connector-curvature="0"
     id="path409"
     d="m 548.92126,187.90894 32.13855,0 0,33.48032 -32.13855,0 z" />
  <path
     style="fill:#ffffff;fill-rule:nonzero"
     inkscape:connector-curvature="0"
     id="path411"
     d="m 592.4019,20.507377 32.13855,0 0,33.48031 -32.13855,0 z" />
  <path
     style="stroke:#000000;stroke-width:1;stroke-linecap:butt;stroke-linejoin:round"
     inkscape:connector-curvature="0"
     id="path413"
     d="m 592.4019,20.507377 32.13855,0 0,33.48031 -32.13855,0 z" />
  <path
     style="fill:#ffffff;fill-rule:nonzero"
     inkscape:connector-curvature="0"
     id="path415"
     d="m 592.4019,53.987687 32.13855,0 0,33.48032 -32.13855,0 z" />
  <path
     style="stroke:#000000;stroke-width:1;stroke-linecap:butt;stroke-linejoin:round"
     inkscape:connector-curvature="0"
     id="path417"
     d="m 592.4019,53.987687 32.13855,0 0,33.48032 -32.13855,0 z" />
  <path
     style="fill:#ffffff;fill-rule:nonzero"
     inkscape:connector-curvature="0"
     id="path419"
     d="m 592.4019,120.94832 32.13855,0 0,33.48032 -32.13855,0 z" />
  <path
     style="stroke:#000000;stroke-width:1;stroke-linecap:butt;stroke-linejoin:round"
     inkscape:connector-curvature="0"
     id="path421"
     d="m 592.4019,120.94832 32.13855,0 0,33.48032 -32.13855,0 z" />
  <path
     style="fill:#ffffff;fill-rule:nonzero"
     inkscape:connector-curvature="0"
     id="path423"
     d="m 592.4019,154.42864 32.13855,0 0,33.4803 -32.13855,0 z" />
  <path
     style="stroke:#000000;stroke-width:1;stroke-linecap:butt;stroke-linejoin:round"
     inkscape:connector-curvature="0"
     id="path425"
     d="m 592.4019,154.42864 32.13855,0 0,33.4803 -32.13855,0 z" />
  <path
     style="fill:#cccccc;fill-rule:nonzero"
     inkscape:connector-curvature="0"
     id="path427"
     d="m 592.4019,187.90894 32.13855,0 0,33.48032 -32.13855,0 z" />
  <path
     style="stroke:#000000;stroke-width:1;stroke-linecap:butt;stroke-linejoin:round"
     inkscape:connector-curvature="0"
     id="path429"
     d="m 592.4019,187.90894 32.13855,0 0,33.48032 -32.13855,0 z" />
  <path
     style="fill:#ffffff;fill-rule:nonzero"
     inkscape:connector-curvature="0"
     id="path431"
     d="m 679.36615,20.507377 32.13855,0 0,33.48031 -32.13855,0 z" />
  <path
     style="stroke:#000000;stroke-width:1;stroke-linecap:butt;stroke-linejoin:round"
     inkscape:connector-curvature="0"
     id="path433"
     d="m 679.36615,20.507377 32.13855,0 0,33.48031 -32.13855,0 z" />
  <path
     style="fill:#ffffff;fill-rule:nonzero"
     inkscape:connector-curvature="0"
     id="path435"
     d="m 679.36615,53.987687 32.13855,0 0,33.48032 -32.13855,0 z" />
  <path
     style="stroke:#000000;stroke-width:1;stroke-linecap:butt;stroke-linejoin:round"
     inkscape:connector-curvature="0"
     id="path437"
     d="m 679.36615,53.987687 32.13855,0 0,33.48032 -32.13855,0 z" />
  <path
     style="fill:#ffffff;fill-rule:nonzero"
     inkscape:connector-curvature="0"
     id="path439"
     d="m 679.36615,120.94832 32.13855,0 0,33.48032 -32.13855,0 z" />
  <path
     style="stroke:#000000;stroke-width:1;stroke-linecap:butt;stroke-linejoin:round"
     inkscape:connector-curvature="0"
     id="path441"
     d="m 679.36615,120.94832 32.13855,0 0,33.48032 -32.13855,0 z" />
  <path
     style="fill:#ffffff;fill-rule:nonzero"
     inkscape:connector-curvature="0"
     id="path443"
     d="m 679.36615,154.42864 32.13855,0 0,33.4803 -32.13855,0 z" />
  <path
     style="stroke:#000000;stroke-width:1;stroke-linecap:butt;stroke-linejoin:round"
     inkscape:connector-curvature="0"
     id="path445"
     d="m 679.36615,154.42864 32.13855,0 0,33.4803 -32.13855,0 z" />
  <path
     style="fill:#ffffff;fill-rule:nonzero"
     inkscape:connector-curvature="0"
     id="path447"
     d="m 679.36615,187.90894 32.13855,0 0,33.48032 -32.13855,0 z" />
  <path
     style="stroke:#000000;stroke-width:1;stroke-linecap:butt;stroke-linejoin:round"
     inkscape:connector-curvature="0"
     id="path449"
     d="m 679.36615,187.90894 32.13855,0 0,33.48032 -32.13855,0 z" />
  <path
     style="fill:#ffffff;fill-rule:nonzero"
     inkscape:connector-curvature="0"
     id="path451"
     d="m 635.88544,20.507377 32.13855,0 0,33.48031 -32.13855,0 z" />
  <path
     style="stroke:#000000;stroke-width:1;stroke-linecap:butt;stroke-linejoin:round"
     inkscape:connector-curvature="0"
     id="path453"
     d="m 635.88544,20.507377 32.13855,0 0,33.48031 -32.13855,0 z" />
  <path
     style="fill:#ffffff;fill-rule:nonzero"
     inkscape:connector-curvature="0"
     id="path455"
     d="m 635.88544,53.987687 32.13855,0 0,33.48032 -32.13855,0 z" />
  <path
     style="stroke:#000000;stroke-width:1;stroke-linecap:butt;stroke-linejoin:round"
     inkscape:connector-curvature="0"
     id="path457"
     d="m 635.88544,53.987687 32.13855,0 0,33.48032 -32.13855,0 z" />
  <path
     style="fill:#ffffff;fill-rule:nonzero"
     inkscape:connector-curvature="0"
     id="path459"
     d="m 635.88544,120.94832 32.13855,0 0,33.48032 -32.13855,0 z" />
  <path
     style="stroke:#000000;stroke-width:1;stroke-linecap:butt;stroke-linejoin:round"
     inkscape:connector-curvature="0"
     id="path461"
     d="m 635.88544,120.94832 32.13855,0 0,33.48032 -32.13855,0 z" />
  <path
     style="fill:#cccccc;fill-rule:nonzero"
     inkscape:connector-curvature="0"
     id="path463"
     d="m 635.88544,154.42864 32.13855,0 0,33.4803 -32.13855,0 z" />
  <path
     style="stroke:#000000;stroke-width:1;stroke-linecap:butt;stroke-linejoin:round"
     inkscape:connector-curvature="0"
     id="path465"
     d="m 635.88544,154.42864 32.13855,0 0,33.4803 -32.13855,0 z" />
  <path
     style="fill:#ffffff;fill-rule:nonzero"
     inkscape:connector-curvature="0"
     id="path467"
     d="m 635.88544,187.90894 32.13855,0 0,33.48032 -32.13855,0 z" />
  <path
     style="stroke:#000000;stroke-width:1;stroke-linecap:butt;stroke-linejoin:round"
     inkscape:connector-curvature="0"
     id="path469"
     d="m 635.88544,187.90894 32.13855,0 0,33.48032 -32.13855,0 z" />
  <path
     style="fill:#000000;fill-opacity:0;fill-rule:nonzero"
     inkscape:connector-curvature="0"
     id="path471"
     d="M 43.2413,245.7016 43.20981,221.38663" />
  <path
     style="stroke:#000000;stroke-width:1;stroke-linecap:butt;stroke-linejoin:round"
     inkscape:connector-curvature="0"
     id="path473"
     d="M 43.2413,245.7016 43.21758,227.38663" />
  <path
     style="fill:#000000;fill-rule:evenodd;stroke:#000000;stroke-width:1;stroke-linecap:butt"
     inkscape:connector-curvature="0"
     id="path475"
     d="m 44.869316,227.38448 -1.657616,-4.53595 -1.645851,4.54022 z" />
  <path
     style="fill:#000000;fill-opacity:0;fill-rule:nonzero"
     inkscape:connector-curvature="0"
     id="path477"
     d="m 86.72022,245.7016 -0.0315,-24.31497" />
  <path
     style="stroke:#000000;stroke-width:1;stroke-linecap:butt;stroke-linejoin:round"
     inkscape:connector-curvature="0"
     id="path479"
     d="M 86.72023,245.7016 86.6965,227.38663" />
  <path
     style="fill:#000000;fill-rule:evenodd;stroke:#000000;stroke-width:1;stroke-linecap:butt"
     inkscape:connector-curvature="0"
     id="path481"
     d="m 88.34824,227.38448 -1.65762,-4.53595 -1.64585,4.54022 z" />
  <path
     style="fill:#000000;fill-opacity:0;fill-rule:nonzero"
     inkscape:connector-curvature="0"
     id="path483"
     d="m 130.19916,245.7016 -0.0315,-24.31497" />
  <path
     style="stroke:#000000;stroke-width:1;stroke-linecap:butt;stroke-linejoin:round"
     inkscape:connector-curvature="0"
     id="path485"
     d="m 130.19916,245.7016 -0.0237,-18.31497" />
  <path
     style="fill:#000000;fill-rule:evenodd;stroke:#000000;stroke-width:1;stroke-linecap:butt"
     inkscape:connector-curvature="0"
     id="path487"
     d="m 131.82716,227.38448 -1.65761,-4.53595 -1.64586,4.54022 z" />
  <path
     style="fill:#000000;fill-opacity:0;fill-rule:nonzero"
     inkscape:connector-curvature="0"
     id="path489"
     d="m 173.67807,245.7016 -0.0315,-24.31497" />
  <path
     style="stroke:#000000;stroke-width:1;stroke-linecap:butt;stroke-linejoin:round"
     inkscape:connector-curvature="0"
     id="path491"
     d="m 173.67807,245.7016 -0.0237,-18.31497" />
  <path
     style="fill:#000000;fill-rule:evenodd;stroke:#000000;stroke-width:1;stroke-linecap:butt"
     inkscape:connector-curvature="0"
     id="path493"
     d="m 175.30608,227.38448 -1.65761,-4.53595 -1.64586,4.54022 z" />
  <path
     style="fill:#000000;fill-opacity:0;fill-rule:nonzero"
     inkscape:connector-curvature="0"
     id="path495"
     d="m 217.15701,245.7016 -0.0315,-24.31497" />
  <path
     style="stroke:#000000;stroke-width:1;stroke-linecap:butt;stroke-linejoin:round"
     inkscape:connector-curvature="0"
     id="path497"
     d="m 217.15701,245.7016 -0.0237,-18.31497" />
  <path
     style="fill:#000000;fill-rule:evenodd;stroke:#000000;stroke-width:1;stroke-linecap:butt"
     inkscape:connector-curvature="0"
     id="path499"
     d="m 218.78502,227.38448 -1.65761,-4.53595 -1.64586,4.54022 z" />
  <path
     style="fill:#000000;fill-opacity:0;fill-rule:nonzero"
     inkscape:connector-curvature="0"
     id="path501"
     d="m 260.61456,245.70423 0,-24.31497" />
  <path
     style="stroke:#000000;stroke-width:1;stroke-linecap:butt;stroke-linejoin:round"
     inkscape:connector-curvature="0"
     id="path503"
     d="m 260.61456,245.70423 0,-18.31497" />
  <path
     style="fill:#000000;fill-rule:evenodd;stroke:#000000;stroke-width:1;stroke-linecap:butt"
     inkscape:connector-curvature="0"
     id="path505"
     d="m 262.2663,227.38926 -1.65173,-4.53809 -1.65174,4.53809 z" />
  <path
     style="fill:#000000;fill-opacity:0;fill-rule:nonzero"
     inkscape:connector-curvature="0"
     id="path507"
     d="m 304.11484,245.7016 -0.0315,-24.31497" />
  <path
     style="stroke:#000000;stroke-width:1;stroke-linecap:butt;stroke-linejoin:round"
     inkscape:connector-curvature="0"
     id="path509"
     d="m 304.11484,245.7016 -0.0237,-18.31497" />
  <path
     style="fill:#000000;fill-rule:evenodd;stroke:#000000;stroke-width:1;stroke-linecap:butt"
     inkscape:connector-curvature="0"
     id="path511"
     d="m 305.74286,227.38448 -1.65762,-4.53595 -1.64585,4.54022 z" />
  <path
     style="fill:#000000;fill-opacity:0;fill-rule:nonzero"
     inkscape:connector-curvature="0"
     id="path513"
     d="m 347.59378,245.7016 0,-24.31497" />
  <path
     style="stroke:#000000;stroke-width:1;stroke-linecap:butt;stroke-linejoin:round"
     inkscape:connector-curvature="0"
     id="path515"
     d="m 347.59378,245.7016 0,-18.31497" />
  <path
     style="fill:#000000;fill-rule:evenodd;stroke:#000000;stroke-width:1;stroke-linecap:butt"
     inkscape:connector-curvature="0"
     id="path517"
     d="m 349.2455,227.38663 -1.65173,-4.53809 -1.65174,4.53809 z" />
  <path
     style="fill:#000000;fill-opacity:0;fill-rule:nonzero"
     inkscape:connector-curvature="0"
     id="path519"
     d="m 391.07272,245.7016 0,-24.31497" />
  <path
     style="stroke:#000000;stroke-width:1;stroke-linecap:butt;stroke-linejoin:round"
     inkscape:connector-curvature="0"
     id="path521"
     d="m 391.07272,245.7016 0,-18.31497" />
  <path
     style="fill:#000000;fill-rule:evenodd;stroke:#000000;stroke-width:1;stroke-linecap:butt"
     inkscape:connector-curvature="0"
     id="path523"
     d="m 392.72446,227.38663 -1.65173,-4.53809 -1.65174,4.53809 z" />
  <path
     style="fill:#000000;fill-opacity:0;fill-rule:nonzero"
     inkscape:connector-curvature="0"
     id="path525"
     d="m 434.55164,245.7016 0,-24.31497" />
  <path
     style="stroke:#000000;stroke-width:1;stroke-linecap:butt;stroke-linejoin:round"
     inkscape:connector-curvature="0"
     id="path527"
     d="m 434.55164,245.7016 0,-18.31497" />
  <path
     style="fill:#000000;fill-rule:evenodd;stroke:#000000;stroke-width:1;stroke-linecap:butt"
     inkscape:connector-curvature="0"
     id="path529"
     d="m 436.20337,227.38663 -1.65173,-4.53809 -1.65174,4.53809 z" />
  <path
     style="fill:#000000;fill-opacity:0;fill-rule:nonzero"
     inkscape:connector-curvature="0"
     id="path531"
     d="m 478.03055,245.7016 0,-24.31497" />
  <path
     style="stroke:#000000;stroke-width:1;stroke-linecap:butt;stroke-linejoin:round"
     inkscape:connector-curvature="0"
     id="path533"
     d="m 478.03055,245.7016 0,-18.31497" />
  <path
     style="fill:#000000;fill-rule:evenodd;stroke:#000000;stroke-width:1;stroke-linecap:butt"
     inkscape:connector-curvature="0"
     id="path535"
     d="m 479.6823,227.38663 -1.65176,-4.53809 -1.65174,4.53809 z" />
  <path
     style="fill:#000000;fill-opacity:0;fill-rule:nonzero"
     inkscape:connector-curvature="0"
     id="path537"
     d="m 521.50946,245.7016 0,-24.31497" />
  <path
     style="stroke:#000000;stroke-width:1;stroke-linecap:butt;stroke-linejoin:round"
     inkscape:connector-curvature="0"
     id="path539"
     d="m 521.50946,245.7016 0,-18.31497" />
  <path
     style="fill:#000000;fill-rule:evenodd;stroke:#000000;stroke-width:1;stroke-linecap:butt"
     inkscape:connector-curvature="0"
     id="path541"
     d="m 523.1612,227.38663 -1.65173,-4.53809 -1.65174,4.53809 z" />
  <path
     style="fill:#000000;fill-opacity:0;fill-rule:nonzero"
     inkscape:connector-curvature="0"
     id="path543"
     d="m 564.9884,245.7016 0,-24.31497" />
  <path
     style="stroke:#000000;stroke-width:1;stroke-linecap:butt;stroke-linejoin:round"
     inkscape:connector-curvature="0"
     id="path545"
     d="m 564.9884,245.7016 0,-18.31497" />
  <path
     style="fill:#000000;fill-rule:evenodd;stroke:#000000;stroke-width:1;stroke-linecap:butt"
     inkscape:connector-curvature="0"
     id="path547"
     d="m 566.64014,227.38663 -1.65173,-4.53809 -1.65174,4.53809 z" />
  <path
     style="fill:#000000;fill-opacity:0;fill-rule:nonzero"
     inkscape:connector-curvature="0"
     id="path549"
     d="m 608.4673,245.7016 0,-24.31497" />
  <path
     style="stroke:#000000;stroke-width:1;stroke-linecap:butt;stroke-linejoin:round"
     inkscape:connector-curvature="0"
     id="path551"
     d="m 608.4673,245.7016 0,-18.31497" />
  <path
     style="fill:#000000;fill-rule:evenodd;stroke:#000000;stroke-width:1;stroke-linecap:butt"
     inkscape:connector-curvature="0"
     id="path553"
     d="m 610.119,227.38663 -1.65173,-4.53809 -1.65174,4.53809 z" />
  <path
     style="fill:#000000;fill-opacity:0;fill-rule:nonzero"
     inkscape:connector-curvature="0"
     id="path555"
     d="m 651.9547,245.70423 0,-24.31497" />
  <path
     style="stroke:#000000;stroke-width:1;stroke-linecap:butt;stroke-linejoin:round"
     inkscape:connector-curvature="0"
     id="path557"
     d="m 651.9547,245.70423 0,-18.31497" />
  <path
     style="fill:#000000;fill-rule:evenodd;stroke:#000000;stroke-width:1;stroke-linecap:butt"
     inkscape:connector-curvature="0"
     id="path559"
     d="m 653.60645,227.38926 -1.65173,-4.53809 -1.65174,4.53809 z" />
  <path
     style="fill:#000000;fill-opacity:0;fill-rule:nonzero"
     inkscape:connector-curvature="0"
     id="path561"
     d="m 695.4252,245.7016 0,-24.31497" />
  <path
     style="stroke:#000000;stroke-width:1;stroke-linecap:butt;stroke-linejoin:round"
     inkscape:connector-curvature="0"
     id="path563"
     d="m 695.4252,245.7016 0,-18.31497" />
  <path
     style="fill:#000000;fill-rule:evenodd;stroke:#000000;stroke-width:1;stroke-linecap:butt"
     inkscape:connector-curvature="0"
     id="path565"
     d="m 697.0769,227.38663 -1.65173,-4.53809 -1.65174,4.53809 z" />
  <path
     style="fill:#000000;fill-opacity:0;fill-rule:nonzero"
     inkscape:connector-curvature="0"
     id="path567"
     d="m 59.28193,37.247527 98.29922,0" />
  <path
     style="stroke:#000000;stroke-width:2;stroke-linecap:butt;stroke-linejoin:round"
     inkscape:connector-curvature="0"
     id="path569"
     d="m 71.28193,37.247527 74.29922,0" />
  <path
     style="fill:#000000;fill-rule:evenodd;stroke:#000000;stroke-width:2;stroke-linecap:butt"
     inkscape:connector-curvature="0"
     id="path571"
     d="m 71.28193,33.944067 -9.076195,3.30346 9.076195,3.30347 z" />
  <path
     style="fill:#000000;fill-rule:evenodd;stroke:#000000;stroke-width:2;stroke-linecap:butt"
     inkscape:connector-curvature="0"
     id="path573"
     d="m 145.58115,40.550997 9.07619,-3.30347 -9.07619,-3.30346 z" />
  <path
     style="fill:#000000;fill-opacity:0;fill-rule:nonzero"
     inkscape:connector-curvature="0"
     id="path575"
     d="m 59.274826,70.727847 228.755904,0" />
  <path
     style="stroke:#000000;stroke-width:2;stroke-linecap:butt;stroke-linejoin:round"
     inkscape:connector-curvature="0"
     id="path577"
     d="m 71.27482,70.727847 204.75592,0" />
  <path
     style="fill:#000000;fill-rule:evenodd;stroke:#000000;stroke-width:2;stroke-linecap:butt"
     inkscape:connector-curvature="0"
     id="path579"
     d="m 71.27482,67.424377 -9.076195,3.30347 9.076195,3.30346 z" />
  <path
     style="fill:#000000;fill-rule:evenodd;stroke:#000000;stroke-width:2;stroke-linecap:butt"
     inkscape:connector-curvature="0"
     id="path581"
     d="m 276.03073,74.031307 9.0762,-3.30347 -9.0762,-3.30346 z" />
  <path
     style="fill:#ffffff;fill-rule:nonzero"
     inkscape:connector-curvature="0"
     id="path583"
     d="m 27.13629,87.468007 32.138535,0 0,33.480323 -32.138535,0 z" />
  <path
     style="stroke:#000000;stroke-width:3;stroke-linecap:butt;stroke-linejoin:round"
     inkscape:connector-curvature="0"
     id="path585"
     d="m 27.13629,87.468007 32.138535,0 0,33.480323 -32.138535,0 z" />
  <path
     style="fill:#ffffff;fill-rule:nonzero"
     inkscape:connector-curvature="0"
     id="path587"
     d="m 70.61697,87.468007 32.13854,0 0,33.480323 -32.13854,0 z" />
  <path
     style="stroke:#000000;stroke-width:3;stroke-linecap:butt;stroke-linejoin:round"
     inkscape:connector-curvature="0"
     id="path589"
     d="m 70.61697,87.468007 32.13854,0 0,33.480323 -32.13854,0 z" />
  <path
     style="fill:#ffffff;fill-rule:nonzero"
     inkscape:connector-curvature="0"
     id="path591"
     d="m 157.58115,87.468007 32.13852,0 0,33.480323 -32.13852,0 z" />
  <path
     style="stroke:#000000;stroke-width:3;stroke-linecap:butt;stroke-linejoin:round"
     inkscape:connector-curvature="0"
     id="path593"
     d="m 157.58115,87.468007 32.13852,0 0,33.480323 -32.13852,0 z" />
  <path
     style="fill:#cccccc;fill-rule:nonzero"
     inkscape:connector-curvature="0"
     id="path595"
     d="m 114.10045,87.468007 32.13853,0 0,33.480323 -32.13853,0 z" />
  <path
     style="stroke:#000000;stroke-width:3;stroke-linecap:butt;stroke-linejoin:round"
     inkscape:connector-curvature="0"
     id="path597"
     d="m 114.10045,87.468007 32.13853,0 0,33.480323 -32.13853,0 z" />
  <path
     style="fill:#ffffff;fill-rule:nonzero"
     inkscape:connector-curvature="0"
     id="path599"
     d="m 201.06464,87.468007 32.13852,0 0,33.480323 -32.13852,0 z" />
  <path
     style="stroke:#000000;stroke-width:3;stroke-linecap:butt;stroke-linejoin:round"
     inkscape:connector-curvature="0"
     id="path601"
     d="m 201.06464,87.468007 32.13852,0 0,33.480323 -32.13852,0 z" />
  <path
     style="fill:#ffffff;fill-rule:nonzero"
     inkscape:connector-curvature="0"
     id="path603"
     d="m 244.5453,87.468007 32.13855,0 0,33.480323 -32.13855,0 z" />
  <path
     style="stroke:#000000;stroke-width:3;stroke-linecap:butt;stroke-linejoin:round"
     inkscape:connector-curvature="0"
     id="path605"
     d="m 244.5453,87.468007 32.13855,0 0,33.480323 -32.13855,0 z" />
  <path
     style="fill:#ffffff;fill-rule:nonzero"
     inkscape:connector-curvature="0"
     id="path607"
     d="m 331.50946,87.468007 32.13855,0 0,33.480323 -32.13855,0 z" />
  <path
     style="stroke:#000000;stroke-width:3;stroke-linecap:butt;stroke-linejoin:round"
     inkscape:connector-curvature="0"
     id="path609"
     d="m 331.50946,87.468007 32.13855,0 0,33.480323 -32.13855,0 z" />
  <path
     style="fill:#ffffff;fill-rule:nonzero"
     inkscape:connector-curvature="0"
     id="path611"
     d="m 288.02878,87.468007 32.13855,0 0,33.480323 -32.13855,0 z" />
  <path
     style="stroke:#000000;stroke-width:3;stroke-linecap:butt;stroke-linejoin:round"
     inkscape:connector-curvature="0"
     id="path613"
     d="m 288.02878,87.468007 32.13855,0 0,33.480323 -32.13855,0 z" />
  <path
     style="fill:#ffffff;fill-rule:nonzero"
     inkscape:connector-curvature="0"
     id="path615"
     d="m 374.99295,87.468007 32.13852,0 0,33.480323 -32.13852,0 z" />
  <path
     style="stroke:#000000;stroke-width:3;stroke-linecap:butt;stroke-linejoin:round"
     inkscape:connector-curvature="0"
     id="path617"
     d="m 374.99295,87.468007 32.13852,0 0,33.480323 -32.13852,0 z" />
  <path
     style="fill:#cccccc;fill-rule:nonzero"
     inkscape:connector-curvature="0"
     id="path619"
     d="m 418.47363,87.468007 32.13852,0 0,33.480323 -32.13852,0 z" />
  <path
     style="stroke:#000000;stroke-width:3;stroke-linecap:butt;stroke-linejoin:round"
     inkscape:connector-curvature="0"
     id="path621"
     d="m 418.47363,87.468007 32.13852,0 0,33.480323 -32.13852,0 z" />
  <path
     style="fill:#ffffff;fill-rule:nonzero"
     inkscape:connector-curvature="0"
     id="path623"
     d="m 505.4378,87.468007 32.13849,0 0,33.480323 -32.13849,0 z" />
  <path
     style="stroke:#000000;stroke-width:3;stroke-linecap:butt;stroke-linejoin:round"
     inkscape:connector-curvature="0"
     id="path625"
     d="m 505.4378,87.468007 32.13849,0 0,33.480323 -32.13849,0 z" />
  <path
     style="fill:#cccccc;fill-rule:nonzero"
     inkscape:connector-curvature="0"
     id="path627"
     d="m 461.9571,87.468007 32.13855,0 0,33.480323 -32.13855,0 z" />
  <path
     style="stroke:#000000;stroke-width:3;stroke-linecap:butt;stroke-linejoin:round"
     inkscape:connector-curvature="0"
     id="path629"
     d="m 461.9571,87.468007 32.13855,0 0,33.480323 -32.13855,0 z" />
  <path
     style="fill:#ffffff;fill-rule:nonzero"
     inkscape:connector-curvature="0"
     id="path631"
     d="m 548.92126,87.468007 32.13855,0 0,33.480323 -32.13855,0 z" />
  <path
     style="stroke:#000000;stroke-width:3;stroke-linecap:butt;stroke-linejoin:round"
     inkscape:connector-curvature="0"
     id="path633"
     d="m 548.92126,87.468007 32.13855,0 0,33.480323 -32.13855,0 z" />
  <path
     style="fill:#ffffff;fill-rule:nonzero"
     inkscape:connector-curvature="0"
     id="path635"
     d="m 592.4019,87.468007 32.13855,0 0,33.480323 -32.13855,0 z" />
  <path
     style="stroke:#000000;stroke-width:3;stroke-linecap:butt;stroke-linejoin:round"
     inkscape:connector-curvature="0"
     id="path637"
     d="m 592.4019,87.468007 32.13855,0 0,33.480323 -32.13855,0 z" />
  <path
     style="fill:#ffffff;fill-rule:nonzero"
     inkscape:connector-curvature="0"
     id="path639"
     d="m 679.36615,87.468007 32.13855,0 0,33.480323 -32.13855,0 z" />
  <path
     style="stroke:#000000;stroke-width:3;stroke-linecap:butt;stroke-linejoin:round"
     inkscape:connector-curvature="0"
     id="path641"
     d="m 679.36615,87.468007 32.13855,0 0,33.480323 -32.13855,0 z" />
  <path
     style="fill:#ffffff;fill-rule:nonzero"
     inkscape:connector-curvature="0"
     id="path643"
     d="m 635.88544,87.468007 32.13855,0 0,33.480323 -32.13855,0 z" />
  <path
     style="stroke:#000000;stroke-width:3;stroke-linecap:butt;stroke-linejoin:round"
     inkscape:connector-curvature="0"
     id="path645"
     d="m 635.88544,87.468007 32.13855,0 0,33.480323 -32.13855,0 z" />
</svg>
